<mxfile host="65bd71144e">
    <diagram id="JFFtvGdBms1kCDurncL_" name="Page-1">
        <mxGraphModel dx="1262" dy="883" grid="1" gridSize="10" guides="1" tooltips="1" connect="1" arrows="1" fold="1" page="1" pageScale="1" pageWidth="850" pageHeight="1100" math="0" shadow="0">
            <root>
                <mxCell id="0"/>
                <mxCell id="1" parent="0"/>
                <mxCell id="7" value="Event" style="swimlane;fontStyle=1;align=center;verticalAlign=top;childLayout=stackLayout;horizontal=1;startSize=26;horizontalStack=0;resizeParent=1;resizeParentMax=0;resizeLast=0;collapsible=1;marginBottom=0;fontSize=14;" parent="1" vertex="1">
                    <mxGeometry y="300" width="300" height="240" as="geometry"/>
                </mxCell>
                <mxCell id="8" value="&lt;&lt;get / set&gt;&gt; #eventID: int&#10;&lt;&lt;get / set&gt;&gt; #instituionID: int&#10;&lt;&lt;get / set&gt;&gt; #title: String&#10;&lt;&lt;get / set&gt;&gt; #description: String&#10;&lt;&lt;get / set&gt;&gt; #englishLocation: String&#10;&lt;&lt;get / set&gt;&gt; #mapLocation: Location&#10;&lt;&lt;get / set&gt;&gt; #fromDate: Date&#10;&lt;&lt;get / set&gt;&gt; #toDate: Date&#10;&lt;&lt;get / set&gt;&gt; #fromWorkingHour: LocalTime&#10;&lt;&lt;get / set&gt;&gt; #toWorkingHour: LocalTime&#10;" style="text;strokeColor=none;fillColor=none;align=left;verticalAlign=top;spacingLeft=4;spacingRight=4;overflow=hidden;rotatable=0;points=[[0,0.5],[1,0.5]];portConstraint=eastwest;fontSize=14;" parent="7" vertex="1">
                    <mxGeometry y="26" width="300" height="194" as="geometry"/>
                </mxCell>
                <mxCell id="9" value="" style="line;strokeWidth=1;fillColor=none;align=left;verticalAlign=middle;spacingTop=-1;spacingLeft=3;spacingRight=3;rotatable=0;labelPosition=right;points=[];portConstraint=eastwest;" parent="7" vertex="1">
                    <mxGeometry y="220" width="300" height="20" as="geometry"/>
                </mxCell>
                <mxCell id="fqxu1SJbFrn7Zud5HkEr-159" style="edgeStyle=none;html=1;exitX=0.5;exitY=0;exitDx=0;exitDy=0;entryX=0.478;entryY=0.99;entryDx=0;entryDy=0;entryPerimeter=0;fontSize=14;endArrow=none;endFill=0;startArrow=none;startFill=0;" parent="1" source="53" target="78" edge="1">
                    <mxGeometry relative="1" as="geometry"/>
                </mxCell>
                <mxCell id="53" value="EventService" style="swimlane;fontStyle=1;align=center;verticalAlign=top;childLayout=stackLayout;horizontal=1;startSize=26;horizontalStack=0;resizeParent=1;resizeParentMax=0;resizeLast=0;collapsible=1;marginBottom=0;fontSize=14;" parent="1" vertex="1">
                    <mxGeometry x="380" y="260" width="390" height="180" as="geometry"/>
                </mxCell>
                <mxCell id="54" value="- eventDao: EventDao" style="text;strokeColor=none;fillColor=none;align=left;verticalAlign=top;spacingLeft=4;spacingRight=4;overflow=hidden;rotatable=0;points=[[0,0.5],[1,0.5]];portConstraint=eastwest;fontSize=14;" parent="53" vertex="1">
                    <mxGeometry y="26" width="390" height="34" as="geometry"/>
                </mxCell>
                <mxCell id="55" value="" style="line;strokeWidth=1;fillColor=none;align=left;verticalAlign=middle;spacingTop=-1;spacingLeft=3;spacingRight=3;rotatable=0;labelPosition=right;points=[];portConstraint=eastwest;fontSize=14;" parent="53" vertex="1">
                    <mxGeometry y="60" width="390" height="8" as="geometry"/>
                </mxCell>
                <mxCell id="56" value="+ createEvent(event: Event): int&#10;+ updateEvent(event: Event): boolean&#10;+ deleteEvent(ID: eventID): boolean&#10;+ getUserEvents (UserID: int, location: Location): List&lt;Event&gt;&#10;+ getInstitionEvents(InstituionID: int): List&lt;Event&gt;" style="text;strokeColor=none;fillColor=none;align=left;verticalAlign=top;spacingLeft=4;spacingRight=4;overflow=hidden;rotatable=0;points=[[0,0.5],[1,0.5]];portConstraint=eastwest;fontSize=14;" parent="53" vertex="1">
                    <mxGeometry y="68" width="390" height="112" as="geometry"/>
                </mxCell>
                <mxCell id="64" value="&lt;&lt;interface&gt;&gt;&#10;EventDao" style="swimlane;fontStyle=1;align=center;verticalAlign=middle;childLayout=stackLayout;horizontal=1;startSize=30;horizontalStack=0;resizeParent=1;resizeParentMax=0;resizeLast=0;collapsible=1;marginBottom=0;" parent="1" vertex="1">
                    <mxGeometry x="770" y="460" width="300" height="150" as="geometry"/>
                </mxCell>
                <mxCell id="65" value="" style="line;strokeWidth=1;fillColor=none;align=left;verticalAlign=middle;spacingTop=-1;spacingLeft=3;spacingRight=3;rotatable=0;labelPosition=right;points=[];portConstraint=eastwest;" parent="64" vertex="1">
                    <mxGeometry y="30" width="300" height="10" as="geometry"/>
                </mxCell>
                <mxCell id="66" value="+ createEvent(event: Event): int&#10;+ updateEvent(event: Event): boolean&#10;+ deleteEvent(eventID: int): boolean&#10;+ getUserEvents(UserID: int): List&lt;Event&gt;&#10;+ getInstitutionEvents(InstitutionID: int): List&lt;Event&gt;&#10;+ getEvent(eventID: int): Event&#10;" style="text;strokeColor=none;fillColor=none;align=left;verticalAlign=top;spacingLeft=4;spacingRight=4;overflow=hidden;rotatable=0;points=[[0,0.5],[1,0.5]];portConstraint=eastwest;" parent="64" vertex="1">
                    <mxGeometry y="40" width="300" height="110" as="geometry"/>
                </mxCell>
                <mxCell id="75" value="Instituion" style="swimlane;fontStyle=1;align=center;verticalAlign=top;childLayout=stackLayout;horizontal=1;startSize=26;horizontalStack=0;resizeParent=1;resizeParentMax=0;resizeLast=0;collapsible=1;marginBottom=0;fontSize=18;" parent="1" vertex="1">
                    <mxGeometry x="500" y="10" width="160" height="190" as="geometry"/>
                </mxCell>
                <mxCell id="79" value="-ID" style="text;strokeColor=none;fillColor=none;align=left;verticalAlign=middle;spacingLeft=4;spacingRight=4;overflow=hidden;points=[[0,0.5],[1,0.5]];portConstraint=eastwest;rotatable=0;" parent="75" vertex="1">
                    <mxGeometry y="26" width="160" height="30" as="geometry"/>
                </mxCell>
                <mxCell id="80" value="-eventService:EventService" style="text;html=1;strokeColor=none;fillColor=none;align=left;verticalAlign=middle;whiteSpace=wrap;rounded=0;" parent="75" vertex="1">
                    <mxGeometry y="56" width="160" height="30" as="geometry"/>
                </mxCell>
                <mxCell id="77" value="" style="line;strokeWidth=1;fillColor=none;align=left;verticalAlign=middle;spacingTop=-1;spacingLeft=3;spacingRight=3;rotatable=0;labelPosition=right;points=[];portConstraint=eastwest;fontSize=18;" parent="75" vertex="1">
                    <mxGeometry y="86" width="160" height="54" as="geometry"/>
                </mxCell>
                <mxCell id="78" value="+CreateEvent():boolean&#10;+editEvent():boolean" style="text;strokeColor=none;fillColor=none;align=left;verticalAlign=top;spacingLeft=4;spacingRight=4;overflow=hidden;rotatable=0;points=[[0,0.5],[1,0.5]];portConstraint=eastwest;fontSize=12;" parent="75" vertex="1">
                    <mxGeometry y="140" width="160" height="50" as="geometry"/>
                </mxCell>
                <mxCell id="105" value="&lt;&lt;interface&gt;&gt;&#10;TransactionDao" style="swimlane;fontStyle=1;align=center;verticalAlign=middle;childLayout=stackLayout;horizontal=1;startSize=26;horizontalStack=0;resizeParent=1;resizeParentMax=0;resizeLast=0;collapsible=1;marginBottom=0;" parent="1" vertex="1">
                    <mxGeometry x="760" y="920" width="310" height="90" as="geometry"/>
                </mxCell>
                <mxCell id="106" value="" style="line;strokeWidth=1;fillColor=none;align=left;verticalAlign=middle;spacingTop=-1;spacingLeft=3;spacingRight=3;rotatable=0;labelPosition=right;points=[];portConstraint=eastwest;" parent="105" vertex="1">
                    <mxGeometry y="26" width="310" height="8" as="geometry"/>
                </mxCell>
                <mxCell id="107" value="+ createTransaction(transaction: Transaction)&#10;+ updateLastDonatedTime(userID: int): boolean&#10;+ updateNoOfBags(InstitutionID: int) " style="text;strokeColor=none;fillColor=none;align=left;verticalAlign=top;spacingLeft=4;spacingRight=4;overflow=hidden;rotatable=0;points=[[0,0.5],[1,0.5]];portConstraint=eastwest;" parent="105" vertex="1">
                    <mxGeometry y="34" width="310" height="56" as="geometry"/>
                </mxCell>
                <mxCell id="126" style="edgeStyle=none;html=1;exitX=0.5;exitY=0;exitDx=0;exitDy=0;fontSize=14;endArrow=none;endFill=0;entryX=1;entryY=0.5;entryDx=0;entryDy=0;" parent="1" source="64" target="56" edge="1">
                    <mxGeometry relative="1" as="geometry"/>
                </mxCell>
                <mxCell id="142" value="Tansaction" style="swimlane;fontStyle=0;childLayout=stackLayout;horizontal=1;startSize=26;fillColor=none;horizontalStack=0;resizeParent=1;resizeParentMax=0;resizeLast=0;collapsible=1;marginBottom=0;fontSize=14;" parent="1" vertex="1">
                    <mxGeometry x="10" y="830" width="240" height="110" as="geometry"/>
                </mxCell>
                <mxCell id="145" value="&lt;&lt;set&gt;&gt; #from(donor id) : int &#10;&lt;&lt;set&gt;&gt; #institution: instituionID&#10;&lt;&lt;set&gt;&gt; #to(reciepient id) : int&#10;&lt;&lt; set&gt;&gt; #timeOfTransaction: Time&#10;" style="text;strokeColor=none;fillColor=none;align=left;verticalAlign=top;spacingLeft=4;spacingRight=4;overflow=hidden;rotatable=0;points=[[0,0.5],[1,0.5]];portConstraint=eastwest;fontSize=14;" parent="142" vertex="1">
                    <mxGeometry y="26" width="240" height="84" as="geometry"/>
                </mxCell>
                <mxCell id="154" value="TransactionService" style="swimlane;fontStyle=1;align=center;verticalAlign=top;childLayout=stackLayout;horizontal=1;startSize=26;horizontalStack=0;resizeParent=1;resizeParentMax=0;resizeLast=0;collapsible=1;marginBottom=0;fontSize=14;" parent="1" vertex="1">
                    <mxGeometry x="410" y="690" width="320" height="160" as="geometry"/>
                </mxCell>
                <mxCell id="155" value="- transactionDao: TransactionDao&#10;" style="text;strokeColor=none;fillColor=none;align=left;verticalAlign=top;spacingLeft=4;spacingRight=4;overflow=hidden;rotatable=0;points=[[0,0.5],[1,0.5]];portConstraint=eastwest;fontSize=14;" parent="154" vertex="1">
                    <mxGeometry y="26" width="320" height="34" as="geometry"/>
                </mxCell>
                <mxCell id="156" value="" style="line;strokeWidth=1;fillColor=none;align=left;verticalAlign=middle;spacingTop=-1;spacingLeft=3;spacingRight=3;rotatable=0;labelPosition=right;points=[];portConstraint=eastwest;fontSize=14;" parent="154" vertex="1">
                    <mxGeometry y="60" width="320" height="8" as="geometry"/>
                </mxCell>
                <mxCell id="157" value="+ createTransaction(transaction: Transaction)&#10;+ updateLastDonatedTime(userID: int): boolean&#10;+ updateNoOfBags(institutionID: int) " style="text;strokeColor=none;fillColor=none;align=left;verticalAlign=top;spacingLeft=4;spacingRight=4;overflow=hidden;rotatable=0;points=[[0,0.5],[1,0.5]];portConstraint=eastwest;fontSize=14;" parent="154" vertex="1">
                    <mxGeometry y="68" width="320" height="92" as="geometry"/>
                </mxCell>
                <mxCell id="T5lEegtDsJeZQ5K3YUQ6-162" style="edgeStyle=none;html=1;exitX=1;exitY=0.5;exitDx=0;exitDy=0;entryX=0.25;entryY=0;entryDx=0;entryDy=0;fontSize=14;endArrow=none;endFill=0;" parent="1" source="157" target="105" edge="1">
                    <mxGeometry relative="1" as="geometry"/>
                </mxCell>
                <mxCell id="eotIb6DFzLrQLpkZFVwQ-158" style="edgeStyle=none;html=1;exitX=-0.009;exitY=0.078;exitDx=0;exitDy=0;fontSize=18;exitPerimeter=0;endArrow=open;endFill=0;dashed=1;entryX=1;entryY=0.25;entryDx=0;entryDy=0;" parent="1" source="157" target="142" edge="1">
                    <mxGeometry relative="1" as="geometry">
                        <mxPoint x="379.9999999999998" y="906.31" as="sourcePoint"/>
                        <mxPoint x="279.76" y="900" as="targetPoint"/>
                    </mxGeometry>
                </mxCell>
                <mxCell id="fqxu1SJbFrn7Zud5HkEr-158" style="edgeStyle=none;html=1;exitX=0;exitY=0.5;exitDx=0;exitDy=0;entryX=1.001;entryY=0.634;entryDx=0;entryDy=0;entryPerimeter=0;fontSize=14;endArrow=open;endFill=0;dashed=1;" parent="1" source="56" target="8" edge="1">
                    <mxGeometry relative="1" as="geometry"/>
                </mxCell>
                <mxCell id="TIpsmVgg8M8zj8PtaqTB-157" style="edgeStyle=none;html=1;exitX=0;exitY=0.5;exitDx=0;exitDy=0;entryX=1;entryY=0.5;entryDx=0;entryDy=0;" parent="1" source="107" target="145" edge="1">
                    <mxGeometry relative="1" as="geometry"/>
                </mxCell>
                <mxCell id="TIpsmVgg8M8zj8PtaqTB-158" style="edgeStyle=none;html=1;exitX=0;exitY=0.5;exitDx=0;exitDy=0;entryX=1.002;entryY=0.951;entryDx=0;entryDy=0;entryPerimeter=0;" parent="1" source="66" target="8" edge="1">
                    <mxGeometry relative="1" as="geometry"/>
                </mxCell>
                <mxCell id="FwXcf8l_b5_wPm-adPN4-157" value="DB" style="shape=cylinder3;whiteSpace=wrap;html=1;boundedLbl=1;backgroundOutline=1;size=15;" parent="1" vertex="1">
                    <mxGeometry x="1210" y="670" width="60" height="80" as="geometry"/>
                </mxCell>
                <mxCell id="FwXcf8l_b5_wPm-adPN4-160" value="" style="endArrow=open;html=1;endSize=12;startArrow=diamondThin;startSize=14;startFill=0;edgeStyle=orthogonalEdgeStyle;align=left;verticalAlign=bottom;rounded=0;exitX=1;exitY=0.5;exitDx=0;exitDy=0;entryX=0;entryY=0;entryDx=0;entryDy=27.5;entryPerimeter=0;" parent="1" source="66" target="FwXcf8l_b5_wPm-adPN4-157" edge="1">
                    <mxGeometry x="1" y="177" relative="1" as="geometry">
                        <mxPoint x="1010" y="660" as="sourcePoint"/>
                        <mxPoint x="1040" y="670" as="targetPoint"/>
                        <mxPoint x="-57" y="130" as="offset"/>
                    </mxGeometry>
                </mxCell>
                <mxCell id="FwXcf8l_b5_wPm-adPN4-161" value="" style="endArrow=open;html=1;endSize=12;startArrow=diamondThin;startSize=14;startFill=0;edgeStyle=orthogonalEdgeStyle;align=left;verticalAlign=bottom;rounded=0;exitX=1;exitY=0.5;exitDx=0;exitDy=0;" parent="1" source="105" edge="1">
                    <mxGeometry x="1" y="177" relative="1" as="geometry">
                        <mxPoint x="1090" y="940" as="sourcePoint"/>
                        <mxPoint x="1210" y="720" as="targetPoint"/>
                        <mxPoint x="-57" y="130" as="offset"/>
                        <Array as="points">
                            <mxPoint x="1120" y="965"/>
                            <mxPoint x="1120" y="837"/>
                            <mxPoint x="1150" y="837"/>
                            <mxPoint x="1150" y="720"/>
                        </Array>
                    </mxGeometry>
                </mxCell>
            </root>
        </mxGraphModel>
    </diagram>
    <diagram id="mxBNa6fx7uLhi-VjpEai" name="CRC">
        <mxGraphModel grid="1" gridSize="10" guides="1" tooltips="1" connect="1" arrows="1" page="1" fold="1" pageScale="1" pageWidth="850" pageHeight="1100" math="0" shadow="0">
            <root>
                <mxCell id="SCy3Kb6sFU_jo6mRdR9g-0"/>
                <mxCell id="SCy3Kb6sFU_jo6mRdR9g-1" parent="SCy3Kb6sFU_jo6mRdR9g-0"/>
                <mxCell id="v3nUyzFjNRCTzx370uGw-0" value="Event" style="shape=table;startSize=30;container=1;collapsible=1;childLayout=tableLayout;fixedRows=1;rowLines=0;fontStyle=1;align=center;resizeLast=1;" vertex="1" parent="SCy3Kb6sFU_jo6mRdR9g-1">
                    <mxGeometry x="40" y="110" width="220" height="360" as="geometry"/>
                </mxCell>
                <mxCell id="v3nUyzFjNRCTzx370uGw-1" value="" style="shape=tableRow;horizontal=0;startSize=0;swimlaneHead=0;swimlaneBody=0;fillColor=none;collapsible=0;dropTarget=0;points=[[0,0.5],[1,0.5]];portConstraint=eastwest;top=0;left=0;right=0;bottom=1;" vertex="1" parent="v3nUyzFjNRCTzx370uGw-0">
                    <mxGeometry y="30" width="220" height="30" as="geometry"/>
                </mxCell>
                <mxCell id="v3nUyzFjNRCTzx370uGw-2" value="Attributes" style="shape=partialRectangle;connectable=0;fillColor=none;top=0;left=0;bottom=0;right=0;fontStyle=1;overflow=hidden;" vertex="1" parent="v3nUyzFjNRCTzx370uGw-1">
                    <mxGeometry width="110" height="30" as="geometry">
                        <mxRectangle width="110" height="30" as="alternateBounds"/>
                    </mxGeometry>
                </mxCell>
                <mxCell id="v3nUyzFjNRCTzx370uGw-3" value="Collaborations" style="shape=partialRectangle;connectable=0;fillColor=none;top=0;left=0;bottom=0;right=0;align=left;spacingLeft=6;fontStyle=1;overflow=hidden;" vertex="1" parent="v3nUyzFjNRCTzx370uGw-1">
                    <mxGeometry x="110" width="110" height="30" as="geometry">
                        <mxRectangle width="110" height="30" as="alternateBounds"/>
                    </mxGeometry>
                </mxCell>
                <mxCell id="v3nUyzFjNRCTzx370uGw-4" value="" style="shape=tableRow;horizontal=0;startSize=0;swimlaneHead=0;swimlaneBody=0;fillColor=none;collapsible=0;dropTarget=0;points=[[0,0.5],[1,0.5]];portConstraint=eastwest;top=0;left=0;right=0;bottom=0;" vertex="1" parent="v3nUyzFjNRCTzx370uGw-0">
                    <mxGeometry y="60" width="220" height="30" as="geometry"/>
                </mxCell>
                <mxCell id="v3nUyzFjNRCTzx370uGw-5" value="eventID" style="shape=partialRectangle;connectable=0;fillColor=none;top=0;left=0;bottom=0;right=0;editable=1;overflow=hidden;" vertex="1" parent="v3nUyzFjNRCTzx370uGw-4">
                    <mxGeometry width="110" height="30" as="geometry">
                        <mxRectangle width="110" height="30" as="alternateBounds"/>
                    </mxGeometry>
                </mxCell>
                <mxCell id="v3nUyzFjNRCTzx370uGw-6" value="" style="shape=partialRectangle;connectable=0;fillColor=none;top=0;left=0;bottom=0;right=0;align=left;spacingLeft=6;overflow=hidden;" vertex="1" parent="v3nUyzFjNRCTzx370uGw-4">
                    <mxGeometry x="110" width="110" height="30" as="geometry">
                        <mxRectangle width="110" height="30" as="alternateBounds"/>
                    </mxGeometry>
                </mxCell>
                <mxCell id="v3nUyzFjNRCTzx370uGw-7" value="" style="shape=tableRow;horizontal=0;startSize=0;swimlaneHead=0;swimlaneBody=0;fillColor=none;collapsible=0;dropTarget=0;points=[[0,0.5],[1,0.5]];portConstraint=eastwest;top=0;left=0;right=0;bottom=0;" vertex="1" parent="v3nUyzFjNRCTzx370uGw-0">
                    <mxGeometry y="90" width="220" height="30" as="geometry"/>
                </mxCell>
                <mxCell id="v3nUyzFjNRCTzx370uGw-8" value="institutionID" style="shape=partialRectangle;connectable=0;fillColor=none;top=0;left=0;bottom=0;right=0;editable=1;overflow=hidden;" vertex="1" parent="v3nUyzFjNRCTzx370uGw-7">
                    <mxGeometry width="110" height="30" as="geometry">
                        <mxRectangle width="110" height="30" as="alternateBounds"/>
                    </mxGeometry>
                </mxCell>
                <mxCell id="v3nUyzFjNRCTzx370uGw-9" value="" style="shape=partialRectangle;connectable=0;fillColor=none;top=0;left=0;bottom=0;right=0;align=left;spacingLeft=6;overflow=hidden;" vertex="1" parent="v3nUyzFjNRCTzx370uGw-7">
                    <mxGeometry x="110" width="110" height="30" as="geometry">
                        <mxRectangle width="110" height="30" as="alternateBounds"/>
                    </mxGeometry>
                </mxCell>
                <mxCell id="v3nUyzFjNRCTzx370uGw-10" value="" style="shape=partialRectangle;collapsible=0;dropTarget=0;pointerEvents=0;fillColor=none;top=0;left=0;bottom=0;right=0;points=[[0,0.5],[1,0.5]];portConstraint=eastwest;fontSize=11;" vertex="1" parent="v3nUyzFjNRCTzx370uGw-0">
                    <mxGeometry y="120" width="220" height="30" as="geometry"/>
                </mxCell>
                <mxCell id="v3nUyzFjNRCTzx370uGw-11" value="title" style="shape=partialRectangle;connectable=0;fillColor=none;top=0;left=0;bottom=0;right=0;editable=1;overflow=hidden;fontSize=11;" vertex="1" parent="v3nUyzFjNRCTzx370uGw-10">
                    <mxGeometry width="110" height="30" as="geometry">
                        <mxRectangle width="110" height="30" as="alternateBounds"/>
                    </mxGeometry>
                </mxCell>
                <mxCell id="v3nUyzFjNRCTzx370uGw-12" value="" style="shape=partialRectangle;connectable=0;fillColor=none;top=0;left=0;bottom=0;right=0;align=left;spacingLeft=6;overflow=hidden;fontSize=11;" vertex="1" parent="v3nUyzFjNRCTzx370uGw-10">
                    <mxGeometry x="110" width="110" height="30" as="geometry">
                        <mxRectangle width="110" height="30" as="alternateBounds"/>
                    </mxGeometry>
                </mxCell>
                <mxCell id="v3nUyzFjNRCTzx370uGw-13" value="" style="shape=tableRow;horizontal=0;startSize=0;swimlaneHead=0;swimlaneBody=0;fillColor=none;collapsible=0;dropTarget=0;points=[[0,0.5],[1,0.5]];portConstraint=eastwest;top=0;left=0;right=0;bottom=0;" vertex="1" parent="v3nUyzFjNRCTzx370uGw-0">
                    <mxGeometry y="150" width="220" height="30" as="geometry"/>
                </mxCell>
                <mxCell id="v3nUyzFjNRCTzx370uGw-14" value="description" style="shape=partialRectangle;connectable=0;fillColor=none;top=0;left=0;bottom=0;right=0;editable=1;overflow=hidden;" vertex="1" parent="v3nUyzFjNRCTzx370uGw-13">
                    <mxGeometry width="110" height="30" as="geometry">
                        <mxRectangle width="110" height="30" as="alternateBounds"/>
                    </mxGeometry>
                </mxCell>
                <mxCell id="v3nUyzFjNRCTzx370uGw-15" value="" style="shape=partialRectangle;connectable=0;fillColor=none;top=0;left=0;bottom=0;right=0;align=left;spacingLeft=6;overflow=hidden;" vertex="1" parent="v3nUyzFjNRCTzx370uGw-13">
                    <mxGeometry x="110" width="110" height="30" as="geometry">
                        <mxRectangle width="110" height="30" as="alternateBounds"/>
                    </mxGeometry>
                </mxCell>
                <mxCell id="v3nUyzFjNRCTzx370uGw-16" value="" style="shape=partialRectangle;collapsible=0;dropTarget=0;pointerEvents=0;fillColor=none;top=0;left=0;bottom=1;right=0;points=[[0,0.5],[1,0.5]];portConstraint=eastwest;" vertex="1" parent="v3nUyzFjNRCTzx370uGw-0">
                    <mxGeometry y="180" width="220" height="30" as="geometry"/>
                </mxCell>
                <mxCell id="v3nUyzFjNRCTzx370uGw-17" value="englishLocation" style="shape=partialRectangle;connectable=0;fillColor=none;top=0;left=0;bottom=0;right=0;fontStyle=1;overflow=hidden;" vertex="1" parent="v3nUyzFjNRCTzx370uGw-16">
                    <mxGeometry width="110" height="30" as="geometry">
                        <mxRectangle width="110" height="30" as="alternateBounds"/>
                    </mxGeometry>
                </mxCell>
                <mxCell id="v3nUyzFjNRCTzx370uGw-18" value="" style="shape=partialRectangle;connectable=0;fillColor=none;top=0;left=0;bottom=0;right=0;align=left;spacingLeft=6;fontStyle=5;overflow=hidden;" vertex="1" parent="v3nUyzFjNRCTzx370uGw-16">
                    <mxGeometry x="110" width="110" height="30" as="geometry">
                        <mxRectangle width="110" height="30" as="alternateBounds"/>
                    </mxGeometry>
                </mxCell>
                <mxCell id="v3nUyzFjNRCTzx370uGw-19" value="" style="shape=partialRectangle;collapsible=0;dropTarget=0;pointerEvents=0;fillColor=none;top=0;left=0;bottom=1;right=0;points=[[0,0.5],[1,0.5]];portConstraint=eastwest;" vertex="1" parent="v3nUyzFjNRCTzx370uGw-0">
                    <mxGeometry y="210" width="220" height="30" as="geometry"/>
                </mxCell>
                <mxCell id="v3nUyzFjNRCTzx370uGw-20" value="mapLocation" style="shape=partialRectangle;connectable=0;fillColor=none;top=0;left=0;bottom=0;right=0;fontStyle=1;overflow=hidden;" vertex="1" parent="v3nUyzFjNRCTzx370uGw-19">
                    <mxGeometry width="110" height="30" as="geometry">
                        <mxRectangle width="110" height="30" as="alternateBounds"/>
                    </mxGeometry>
                </mxCell>
                <mxCell id="v3nUyzFjNRCTzx370uGw-21" value="" style="shape=partialRectangle;connectable=0;fillColor=none;top=0;left=0;bottom=0;right=0;align=left;spacingLeft=6;fontStyle=5;overflow=hidden;" vertex="1" parent="v3nUyzFjNRCTzx370uGw-19">
                    <mxGeometry x="110" width="110" height="30" as="geometry">
                        <mxRectangle width="110" height="30" as="alternateBounds"/>
                    </mxGeometry>
                </mxCell>
                <mxCell id="v3nUyzFjNRCTzx370uGw-22" value="" style="shape=partialRectangle;collapsible=0;dropTarget=0;pointerEvents=0;fillColor=none;top=0;left=0;bottom=1;right=0;points=[[0,0.5],[1,0.5]];portConstraint=eastwest;" vertex="1" parent="v3nUyzFjNRCTzx370uGw-0">
                    <mxGeometry y="240" width="220" height="30" as="geometry"/>
                </mxCell>
                <mxCell id="v3nUyzFjNRCTzx370uGw-23" value="fromDate" style="shape=partialRectangle;connectable=0;fillColor=none;top=0;left=0;bottom=0;right=0;fontStyle=1;overflow=hidden;" vertex="1" parent="v3nUyzFjNRCTzx370uGw-22">
                    <mxGeometry width="110" height="30" as="geometry">
                        <mxRectangle width="110" height="30" as="alternateBounds"/>
                    </mxGeometry>
                </mxCell>
                <mxCell id="v3nUyzFjNRCTzx370uGw-24" value="" style="shape=partialRectangle;connectable=0;fillColor=none;top=0;left=0;bottom=0;right=0;align=left;spacingLeft=6;fontStyle=5;overflow=hidden;" vertex="1" parent="v3nUyzFjNRCTzx370uGw-22">
                    <mxGeometry x="110" width="110" height="30" as="geometry">
                        <mxRectangle width="110" height="30" as="alternateBounds"/>
                    </mxGeometry>
                </mxCell>
                <mxCell id="v3nUyzFjNRCTzx370uGw-25" value="" style="shape=partialRectangle;collapsible=0;dropTarget=0;pointerEvents=0;fillColor=none;top=0;left=0;bottom=1;right=0;points=[[0,0.5],[1,0.5]];portConstraint=eastwest;" vertex="1" parent="v3nUyzFjNRCTzx370uGw-0">
                    <mxGeometry y="270" width="220" height="30" as="geometry"/>
                </mxCell>
                <mxCell id="v3nUyzFjNRCTzx370uGw-26" value="toDate" style="shape=partialRectangle;connectable=0;fillColor=none;top=0;left=0;bottom=0;right=0;fontStyle=1;overflow=hidden;" vertex="1" parent="v3nUyzFjNRCTzx370uGw-25">
                    <mxGeometry width="110" height="30" as="geometry">
                        <mxRectangle width="110" height="30" as="alternateBounds"/>
                    </mxGeometry>
                </mxCell>
                <mxCell id="v3nUyzFjNRCTzx370uGw-27" value="" style="shape=partialRectangle;connectable=0;fillColor=none;top=0;left=0;bottom=0;right=0;align=left;spacingLeft=6;fontStyle=5;overflow=hidden;" vertex="1" parent="v3nUyzFjNRCTzx370uGw-25">
                    <mxGeometry x="110" width="110" height="30" as="geometry">
                        <mxRectangle width="110" height="30" as="alternateBounds"/>
                    </mxGeometry>
                </mxCell>
                <mxCell id="v3nUyzFjNRCTzx370uGw-28" value="" style="shape=partialRectangle;collapsible=0;dropTarget=0;pointerEvents=0;fillColor=none;top=0;left=0;bottom=1;right=0;points=[[0,0.5],[1,0.5]];portConstraint=eastwest;" vertex="1" parent="v3nUyzFjNRCTzx370uGw-0">
                    <mxGeometry y="300" width="220" height="30" as="geometry"/>
                </mxCell>
                <mxCell id="v3nUyzFjNRCTzx370uGw-29" value="fromWorkingHour" style="shape=partialRectangle;connectable=0;fillColor=none;top=0;left=0;bottom=0;right=0;fontStyle=1;overflow=hidden;" vertex="1" parent="v3nUyzFjNRCTzx370uGw-28">
                    <mxGeometry width="110" height="30" as="geometry">
                        <mxRectangle width="110" height="30" as="alternateBounds"/>
                    </mxGeometry>
                </mxCell>
                <mxCell id="v3nUyzFjNRCTzx370uGw-30" value="" style="shape=partialRectangle;connectable=0;fillColor=none;top=0;left=0;bottom=0;right=0;align=left;spacingLeft=6;fontStyle=5;overflow=hidden;" vertex="1" parent="v3nUyzFjNRCTzx370uGw-28">
                    <mxGeometry x="110" width="110" height="30" as="geometry">
                        <mxRectangle width="110" height="30" as="alternateBounds"/>
                    </mxGeometry>
                </mxCell>
                <mxCell id="v3nUyzFjNRCTzx370uGw-31" value="" style="shape=partialRectangle;collapsible=0;dropTarget=0;pointerEvents=0;fillColor=none;top=0;left=0;bottom=1;right=0;points=[[0,0.5],[1,0.5]];portConstraint=eastwest;" vertex="1" parent="v3nUyzFjNRCTzx370uGw-0">
                    <mxGeometry y="330" width="220" height="30" as="geometry"/>
                </mxCell>
                <mxCell id="v3nUyzFjNRCTzx370uGw-32" value="toWorkingHour" style="shape=partialRectangle;connectable=0;fillColor=none;top=0;left=0;bottom=0;right=0;fontStyle=1;overflow=hidden;" vertex="1" parent="v3nUyzFjNRCTzx370uGw-31">
                    <mxGeometry width="110" height="30" as="geometry">
                        <mxRectangle width="110" height="30" as="alternateBounds"/>
                    </mxGeometry>
                </mxCell>
                <mxCell id="v3nUyzFjNRCTzx370uGw-33" value="" style="shape=partialRectangle;connectable=0;fillColor=none;top=0;left=0;bottom=0;right=0;align=left;spacingLeft=6;fontStyle=5;overflow=hidden;" vertex="1" parent="v3nUyzFjNRCTzx370uGw-31">
                    <mxGeometry x="110" width="110" height="30" as="geometry">
                        <mxRectangle width="110" height="30" as="alternateBounds"/>
                    </mxGeometry>
                </mxCell>
                <mxCell id="qr2iNxd8oPHYyAbS_WZt-0" value="Transaction" style="shape=table;startSize=30;container=1;collapsible=1;childLayout=tableLayout;fixedRows=1;rowLines=0;fontStyle=1;align=center;resizeLast=1;" vertex="1" parent="SCy3Kb6sFU_jo6mRdR9g-1">
                    <mxGeometry x="320" y="110" width="210" height="180" as="geometry"/>
                </mxCell>
                <mxCell id="qr2iNxd8oPHYyAbS_WZt-1" value="" style="shape=tableRow;horizontal=0;startSize=0;swimlaneHead=0;swimlaneBody=0;fillColor=none;collapsible=0;dropTarget=0;points=[[0,0.5],[1,0.5]];portConstraint=eastwest;top=0;left=0;right=0;bottom=1;" vertex="1" parent="qr2iNxd8oPHYyAbS_WZt-0">
                    <mxGeometry y="30" width="210" height="30" as="geometry"/>
                </mxCell>
                <mxCell id="qr2iNxd8oPHYyAbS_WZt-2" value="Attributes" style="shape=partialRectangle;connectable=0;fillColor=none;top=0;left=0;bottom=0;right=0;fontStyle=1;overflow=hidden;" vertex="1" parent="qr2iNxd8oPHYyAbS_WZt-1">
                    <mxGeometry width="110" height="30" as="geometry">
                        <mxRectangle width="110" height="30" as="alternateBounds"/>
                    </mxGeometry>
                </mxCell>
                <mxCell id="qr2iNxd8oPHYyAbS_WZt-3" value="Collaborations" style="shape=partialRectangle;connectable=0;fillColor=none;top=0;left=0;bottom=0;right=0;align=left;spacingLeft=6;fontStyle=1;overflow=hidden;" vertex="1" parent="qr2iNxd8oPHYyAbS_WZt-1">
                    <mxGeometry x="110" width="100" height="30" as="geometry">
                        <mxRectangle width="100" height="30" as="alternateBounds"/>
                    </mxGeometry>
                </mxCell>
                <mxCell id="qr2iNxd8oPHYyAbS_WZt-4" value="" style="shape=tableRow;horizontal=0;startSize=0;swimlaneHead=0;swimlaneBody=0;fillColor=none;collapsible=0;dropTarget=0;points=[[0,0.5],[1,0.5]];portConstraint=eastwest;top=0;left=0;right=0;bottom=0;" vertex="1" parent="qr2iNxd8oPHYyAbS_WZt-0">
                    <mxGeometry y="60" width="210" height="30" as="geometry"/>
                </mxCell>
                <mxCell id="qr2iNxd8oPHYyAbS_WZt-5" value="from" style="shape=partialRectangle;connectable=0;fillColor=none;top=0;left=0;bottom=0;right=0;editable=1;overflow=hidden;" vertex="1" parent="qr2iNxd8oPHYyAbS_WZt-4">
                    <mxGeometry width="110" height="30" as="geometry">
                        <mxRectangle width="110" height="30" as="alternateBounds"/>
                    </mxGeometry>
                </mxCell>
                <mxCell id="qr2iNxd8oPHYyAbS_WZt-6" value="" style="shape=partialRectangle;connectable=0;fillColor=none;top=0;left=0;bottom=0;right=0;align=left;spacingLeft=6;overflow=hidden;" vertex="1" parent="qr2iNxd8oPHYyAbS_WZt-4">
                    <mxGeometry x="110" width="100" height="30" as="geometry">
                        <mxRectangle width="100" height="30" as="alternateBounds"/>
                    </mxGeometry>
                </mxCell>
                <mxCell id="qr2iNxd8oPHYyAbS_WZt-7" value="" style="shape=tableRow;horizontal=0;startSize=0;swimlaneHead=0;swimlaneBody=0;fillColor=none;collapsible=0;dropTarget=0;points=[[0,0.5],[1,0.5]];portConstraint=eastwest;top=0;left=0;right=0;bottom=0;" vertex="1" parent="qr2iNxd8oPHYyAbS_WZt-0">
                    <mxGeometry y="90" width="210" height="30" as="geometry"/>
                </mxCell>
                <mxCell id="qr2iNxd8oPHYyAbS_WZt-8" value="institution" style="shape=partialRectangle;connectable=0;fillColor=none;top=0;left=0;bottom=0;right=0;editable=1;overflow=hidden;" vertex="1" parent="qr2iNxd8oPHYyAbS_WZt-7">
                    <mxGeometry width="110" height="30" as="geometry">
                        <mxRectangle width="110" height="30" as="alternateBounds"/>
                    </mxGeometry>
                </mxCell>
                <mxCell id="qr2iNxd8oPHYyAbS_WZt-9" value="" style="shape=partialRectangle;connectable=0;fillColor=none;top=0;left=0;bottom=0;right=0;align=left;spacingLeft=6;overflow=hidden;" vertex="1" parent="qr2iNxd8oPHYyAbS_WZt-7">
                    <mxGeometry x="110" width="100" height="30" as="geometry">
                        <mxRectangle width="100" height="30" as="alternateBounds"/>
                    </mxGeometry>
                </mxCell>
                <mxCell id="qr2iNxd8oPHYyAbS_WZt-10" value="" style="shape=partialRectangle;collapsible=0;dropTarget=0;pointerEvents=0;fillColor=none;top=0;left=0;bottom=0;right=0;points=[[0,0.5],[1,0.5]];portConstraint=eastwest;fontSize=11;" vertex="1" parent="qr2iNxd8oPHYyAbS_WZt-0">
                    <mxGeometry y="120" width="210" height="30" as="geometry"/>
                </mxCell>
                <mxCell id="qr2iNxd8oPHYyAbS_WZt-11" value="to" style="shape=partialRectangle;connectable=0;fillColor=none;top=0;left=0;bottom=0;right=0;editable=1;overflow=hidden;fontSize=11;" vertex="1" parent="qr2iNxd8oPHYyAbS_WZt-10">
                    <mxGeometry width="110" height="30" as="geometry">
                        <mxRectangle width="110" height="30" as="alternateBounds"/>
                    </mxGeometry>
                </mxCell>
                <mxCell id="qr2iNxd8oPHYyAbS_WZt-12" value="" style="shape=partialRectangle;connectable=0;fillColor=none;top=0;left=0;bottom=0;right=0;align=left;spacingLeft=6;overflow=hidden;fontSize=11;" vertex="1" parent="qr2iNxd8oPHYyAbS_WZt-10">
                    <mxGeometry x="110" width="100" height="30" as="geometry">
                        <mxRectangle width="100" height="30" as="alternateBounds"/>
                    </mxGeometry>
                </mxCell>
                <mxCell id="qr2iNxd8oPHYyAbS_WZt-13" value="" style="shape=tableRow;horizontal=0;startSize=0;swimlaneHead=0;swimlaneBody=0;fillColor=none;collapsible=0;dropTarget=0;points=[[0,0.5],[1,0.5]];portConstraint=eastwest;top=0;left=0;right=0;bottom=0;" vertex="1" parent="qr2iNxd8oPHYyAbS_WZt-0">
                    <mxGeometry y="150" width="210" height="30" as="geometry"/>
                </mxCell>
                <mxCell id="qr2iNxd8oPHYyAbS_WZt-14" value="timeOfTransaction" style="shape=partialRectangle;connectable=0;fillColor=none;top=0;left=0;bottom=0;right=0;editable=1;overflow=hidden;" vertex="1" parent="qr2iNxd8oPHYyAbS_WZt-13">
                    <mxGeometry width="110" height="30" as="geometry">
                        <mxRectangle width="110" height="30" as="alternateBounds"/>
                    </mxGeometry>
                </mxCell>
                <mxCell id="qr2iNxd8oPHYyAbS_WZt-15" value="" style="shape=partialRectangle;connectable=0;fillColor=none;top=0;left=0;bottom=0;right=0;align=left;spacingLeft=6;overflow=hidden;" vertex="1" parent="qr2iNxd8oPHYyAbS_WZt-13">
                    <mxGeometry x="110" width="100" height="30" as="geometry">
                        <mxRectangle width="100" height="30" as="alternateBounds"/>
                    </mxGeometry>
                </mxCell>
                <mxCell id="ugXiBN7A-baythJoRWFq-16" value="Transaction Service" style="shape=table;startSize=30;container=1;collapsible=1;childLayout=tableLayout;fixedRows=1;rowLines=0;fontStyle=1;align=center;resizeLast=1;" vertex="1" parent="SCy3Kb6sFU_jo6mRdR9g-1">
                    <mxGeometry x="320" y="530" width="290" height="150" as="geometry"/>
                </mxCell>
                <mxCell id="ugXiBN7A-baythJoRWFq-17" value="" style="shape=tableRow;horizontal=0;startSize=0;swimlaneHead=0;swimlaneBody=0;fillColor=none;collapsible=0;dropTarget=0;points=[[0,0.5],[1,0.5]];portConstraint=eastwest;top=0;left=0;right=0;bottom=1;" vertex="1" parent="ugXiBN7A-baythJoRWFq-16">
                    <mxGeometry y="30" width="290" height="30" as="geometry"/>
                </mxCell>
                <mxCell id="ugXiBN7A-baythJoRWFq-18" value="Responsibilities" style="shape=partialRectangle;connectable=0;fillColor=none;top=0;left=0;bottom=0;right=0;fontStyle=1;overflow=hidden;" vertex="1" parent="ugXiBN7A-baythJoRWFq-17">
                    <mxGeometry width="180" height="30" as="geometry">
                        <mxRectangle width="180" height="30" as="alternateBounds"/>
                    </mxGeometry>
                </mxCell>
                <mxCell id="ugXiBN7A-baythJoRWFq-19" value="Collaborations" style="shape=partialRectangle;connectable=0;fillColor=none;top=0;left=0;bottom=0;right=0;align=left;spacingLeft=6;fontStyle=1;overflow=hidden;" vertex="1" parent="ugXiBN7A-baythJoRWFq-17">
                    <mxGeometry x="180" width="110" height="30" as="geometry">
                        <mxRectangle width="110" height="30" as="alternateBounds"/>
                    </mxGeometry>
                </mxCell>
                <mxCell id="ugXiBN7A-baythJoRWFq-20" value="" style="shape=tableRow;horizontal=0;startSize=0;swimlaneHead=0;swimlaneBody=0;fillColor=none;collapsible=0;dropTarget=0;points=[[0,0.5],[1,0.5]];portConstraint=eastwest;top=0;left=0;right=0;bottom=0;" vertex="1" parent="ugXiBN7A-baythJoRWFq-16">
                    <mxGeometry y="60" width="290" height="30" as="geometry"/>
                </mxCell>
                <mxCell id="ugXiBN7A-baythJoRWFq-21" value="Create transaction" style="shape=partialRectangle;connectable=0;fillColor=none;top=0;left=0;bottom=0;right=0;editable=1;overflow=hidden;" vertex="1" parent="ugXiBN7A-baythJoRWFq-20">
                    <mxGeometry width="180" height="30" as="geometry">
                        <mxRectangle width="180" height="30" as="alternateBounds"/>
                    </mxGeometry>
                </mxCell>
                <mxCell id="ugXiBN7A-baythJoRWFq-22" value="Transaction" style="shape=partialRectangle;connectable=0;fillColor=none;top=0;left=0;bottom=0;right=0;align=left;spacingLeft=6;overflow=hidden;" vertex="1" parent="ugXiBN7A-baythJoRWFq-20">
                    <mxGeometry x="180" width="110" height="30" as="geometry">
                        <mxRectangle width="110" height="30" as="alternateBounds"/>
                    </mxGeometry>
                </mxCell>
                <mxCell id="ugXiBN7A-baythJoRWFq-23" value="" style="shape=tableRow;horizontal=0;startSize=0;swimlaneHead=0;swimlaneBody=0;fillColor=none;collapsible=0;dropTarget=0;points=[[0,0.5],[1,0.5]];portConstraint=eastwest;top=0;left=0;right=0;bottom=0;" vertex="1" parent="ugXiBN7A-baythJoRWFq-16">
                    <mxGeometry y="90" width="290" height="30" as="geometry"/>
                </mxCell>
                <mxCell id="ugXiBN7A-baythJoRWFq-24" value="Update User's last donated time" style="shape=partialRectangle;connectable=0;fillColor=none;top=0;left=0;bottom=0;right=0;editable=1;overflow=hidden;" vertex="1" parent="ugXiBN7A-baythJoRWFq-23">
                    <mxGeometry width="180" height="30" as="geometry">
                        <mxRectangle width="180" height="30" as="alternateBounds"/>
                    </mxGeometry>
                </mxCell>
                <mxCell id="ugXiBN7A-baythJoRWFq-25" value="Transaction DAO" style="shape=partialRectangle;connectable=0;fillColor=none;top=0;left=0;bottom=0;right=0;align=left;spacingLeft=6;overflow=hidden;" vertex="1" parent="ugXiBN7A-baythJoRWFq-23">
                    <mxGeometry x="180" width="110" height="30" as="geometry">
                        <mxRectangle width="110" height="30" as="alternateBounds"/>
                    </mxGeometry>
                </mxCell>
                <mxCell id="uvmuEeSbfVfPANUXgKyb-1" value="" style="shape=partialRectangle;collapsible=0;dropTarget=0;pointerEvents=0;fillColor=none;top=0;left=0;bottom=1;right=0;points=[[0,0.5],[1,0.5]];portConstraint=eastwest;" vertex="1" parent="ugXiBN7A-baythJoRWFq-16">
                    <mxGeometry y="120" width="290" height="30" as="geometry"/>
                </mxCell>
                <mxCell id="uvmuEeSbfVfPANUXgKyb-2" value="Update number of bags in inst." style="shape=partialRectangle;connectable=0;fillColor=none;top=0;left=0;bottom=0;right=0;fontStyle=0;overflow=hidden;" vertex="1" parent="uvmuEeSbfVfPANUXgKyb-1">
                    <mxGeometry width="180" height="30" as="geometry">
                        <mxRectangle width="180" height="30" as="alternateBounds"/>
                    </mxGeometry>
                </mxCell>
                <mxCell id="uvmuEeSbfVfPANUXgKyb-3" value="" style="shape=partialRectangle;connectable=0;fillColor=none;top=0;left=0;bottom=0;right=0;align=left;spacingLeft=6;fontStyle=5;overflow=hidden;" vertex="1" parent="uvmuEeSbfVfPANUXgKyb-1">
                    <mxGeometry x="180" width="110" height="30" as="geometry">
                        <mxRectangle width="110" height="30" as="alternateBounds"/>
                    </mxGeometry>
                </mxCell>
                <mxCell id="WplAeC80GVG8oSaLDoGR-0" value="Event Service" style="shape=table;startSize=30;container=1;collapsible=1;childLayout=tableLayout;fixedRows=1;rowLines=0;fontStyle=1;align=center;resizeLast=1;" vertex="1" parent="SCy3Kb6sFU_jo6mRdR9g-1">
                    <mxGeometry x="40" y="530" width="210" height="240" as="geometry"/>
                </mxCell>
                <mxCell id="WplAeC80GVG8oSaLDoGR-1" value="" style="shape=tableRow;horizontal=0;startSize=0;swimlaneHead=0;swimlaneBody=0;fillColor=none;collapsible=0;dropTarget=0;points=[[0,0.5],[1,0.5]];portConstraint=eastwest;top=0;left=0;right=0;bottom=1;" vertex="1" parent="WplAeC80GVG8oSaLDoGR-0">
                    <mxGeometry y="30" width="210" height="30" as="geometry"/>
                </mxCell>
                <mxCell id="WplAeC80GVG8oSaLDoGR-2" value="Responsibilities" style="shape=partialRectangle;connectable=0;fillColor=none;top=0;left=0;bottom=0;right=0;fontStyle=1;overflow=hidden;" vertex="1" parent="WplAeC80GVG8oSaLDoGR-1">
                    <mxGeometry width="110" height="30" as="geometry">
                        <mxRectangle width="110" height="30" as="alternateBounds"/>
                    </mxGeometry>
                </mxCell>
                <mxCell id="WplAeC80GVG8oSaLDoGR-3" value="Collaborations" style="shape=partialRectangle;connectable=0;fillColor=none;top=0;left=0;bottom=0;right=0;align=left;spacingLeft=6;fontStyle=1;overflow=hidden;" vertex="1" parent="WplAeC80GVG8oSaLDoGR-1">
                    <mxGeometry x="110" width="100" height="30" as="geometry">
                        <mxRectangle width="100" height="30" as="alternateBounds"/>
                    </mxGeometry>
                </mxCell>
                <mxCell id="WplAeC80GVG8oSaLDoGR-4" value="" style="shape=tableRow;horizontal=0;startSize=0;swimlaneHead=0;swimlaneBody=0;fillColor=none;collapsible=0;dropTarget=0;points=[[0,0.5],[1,0.5]];portConstraint=eastwest;top=0;left=0;right=0;bottom=0;" vertex="1" parent="WplAeC80GVG8oSaLDoGR-0">
                    <mxGeometry y="60" width="210" height="30" as="geometry"/>
                </mxCell>
                <mxCell id="WplAeC80GVG8oSaLDoGR-5" value="Create Event" style="shape=partialRectangle;connectable=0;fillColor=none;top=0;left=0;bottom=0;right=0;editable=1;overflow=hidden;" vertex="1" parent="WplAeC80GVG8oSaLDoGR-4">
                    <mxGeometry width="110" height="30" as="geometry">
                        <mxRectangle width="110" height="30" as="alternateBounds"/>
                    </mxGeometry>
                </mxCell>
                <mxCell id="WplAeC80GVG8oSaLDoGR-6" value="Institution" style="shape=partialRectangle;connectable=0;fillColor=none;top=0;left=0;bottom=0;right=0;align=left;spacingLeft=6;overflow=hidden;" vertex="1" parent="WplAeC80GVG8oSaLDoGR-4">
                    <mxGeometry x="110" width="100" height="30" as="geometry">
                        <mxRectangle width="100" height="30" as="alternateBounds"/>
                    </mxGeometry>
                </mxCell>
                <mxCell id="WplAeC80GVG8oSaLDoGR-7" value="" style="shape=tableRow;horizontal=0;startSize=0;swimlaneHead=0;swimlaneBody=0;fillColor=none;collapsible=0;dropTarget=0;points=[[0,0.5],[1,0.5]];portConstraint=eastwest;top=0;left=0;right=0;bottom=0;" vertex="1" parent="WplAeC80GVG8oSaLDoGR-0">
                    <mxGeometry y="90" width="210" height="30" as="geometry"/>
                </mxCell>
                <mxCell id="WplAeC80GVG8oSaLDoGR-8" value="Update Event" style="shape=partialRectangle;connectable=0;fillColor=none;top=0;left=0;bottom=0;right=0;editable=1;overflow=hidden;" vertex="1" parent="WplAeC80GVG8oSaLDoGR-7">
                    <mxGeometry width="110" height="30" as="geometry">
                        <mxRectangle width="110" height="30" as="alternateBounds"/>
                    </mxGeometry>
                </mxCell>
                <mxCell id="WplAeC80GVG8oSaLDoGR-9" value="Event" style="shape=partialRectangle;connectable=0;fillColor=none;top=0;left=0;bottom=0;right=0;align=left;spacingLeft=6;overflow=hidden;" vertex="1" parent="WplAeC80GVG8oSaLDoGR-7">
                    <mxGeometry x="110" width="100" height="30" as="geometry">
                        <mxRectangle width="100" height="30" as="alternateBounds"/>
                    </mxGeometry>
                </mxCell>
                <mxCell id="WplAeC80GVG8oSaLDoGR-10" value="" style="shape=partialRectangle;collapsible=0;dropTarget=0;pointerEvents=0;fillColor=none;top=0;left=0;bottom=0;right=0;points=[[0,0.5],[1,0.5]];portConstraint=eastwest;fontSize=11;" vertex="1" parent="WplAeC80GVG8oSaLDoGR-0">
                    <mxGeometry y="120" width="210" height="30" as="geometry"/>
                </mxCell>
                <mxCell id="WplAeC80GVG8oSaLDoGR-11" value="Delete Event" style="shape=partialRectangle;connectable=0;fillColor=none;top=0;left=0;bottom=0;right=0;editable=1;overflow=hidden;fontSize=11;" vertex="1" parent="WplAeC80GVG8oSaLDoGR-10">
                    <mxGeometry width="110" height="30" as="geometry">
                        <mxRectangle width="110" height="30" as="alternateBounds"/>
                    </mxGeometry>
                </mxCell>
                <mxCell id="WplAeC80GVG8oSaLDoGR-12" value="Event DAO" style="shape=partialRectangle;connectable=0;fillColor=none;top=0;left=0;bottom=0;right=0;align=left;spacingLeft=6;overflow=hidden;fontSize=11;" vertex="1" parent="WplAeC80GVG8oSaLDoGR-10">
                    <mxGeometry x="110" width="100" height="30" as="geometry">
                        <mxRectangle width="100" height="30" as="alternateBounds"/>
                    </mxGeometry>
                </mxCell>
                <mxCell id="WplAeC80GVG8oSaLDoGR-13" value="" style="shape=tableRow;horizontal=0;startSize=0;swimlaneHead=0;swimlaneBody=0;fillColor=none;collapsible=0;dropTarget=0;points=[[0,0.5],[1,0.5]];portConstraint=eastwest;top=0;left=0;right=0;bottom=0;" vertex="1" parent="WplAeC80GVG8oSaLDoGR-0">
                    <mxGeometry y="150" width="210" height="30" as="geometry"/>
                </mxCell>
                <mxCell id="WplAeC80GVG8oSaLDoGR-14" value="Get User Events" style="shape=partialRectangle;connectable=0;fillColor=none;top=0;left=0;bottom=0;right=0;editable=1;overflow=hidden;" vertex="1" parent="WplAeC80GVG8oSaLDoGR-13">
                    <mxGeometry width="110" height="30" as="geometry">
                        <mxRectangle width="110" height="30" as="alternateBounds"/>
                    </mxGeometry>
                </mxCell>
                <mxCell id="WplAeC80GVG8oSaLDoGR-15" value="" style="shape=partialRectangle;connectable=0;fillColor=none;top=0;left=0;bottom=0;right=0;align=left;spacingLeft=6;overflow=hidden;" vertex="1" parent="WplAeC80GVG8oSaLDoGR-13">
                    <mxGeometry x="110" width="100" height="30" as="geometry">
                        <mxRectangle width="100" height="30" as="alternateBounds"/>
                    </mxGeometry>
                </mxCell>
                <mxCell id="WplAeC80GVG8oSaLDoGR-16" value="" style="shape=partialRectangle;collapsible=0;dropTarget=0;pointerEvents=0;fillColor=none;top=0;left=0;bottom=1;right=0;points=[[0,0.5],[1,0.5]];portConstraint=eastwest;" vertex="1" parent="WplAeC80GVG8oSaLDoGR-0">
                    <mxGeometry y="180" width="210" height="30" as="geometry"/>
                </mxCell>
                <mxCell id="WplAeC80GVG8oSaLDoGR-17" value="Get Inst. Events" style="shape=partialRectangle;connectable=0;fillColor=none;top=0;left=0;bottom=0;right=0;fontStyle=0;overflow=hidden;" vertex="1" parent="WplAeC80GVG8oSaLDoGR-16">
                    <mxGeometry width="110" height="30" as="geometry">
                        <mxRectangle width="110" height="30" as="alternateBounds"/>
                    </mxGeometry>
                </mxCell>
                <mxCell id="WplAeC80GVG8oSaLDoGR-18" value="" style="shape=partialRectangle;connectable=0;fillColor=none;top=0;left=0;bottom=0;right=0;align=left;spacingLeft=6;fontStyle=4;overflow=hidden;" vertex="1" parent="WplAeC80GVG8oSaLDoGR-16">
                    <mxGeometry x="110" width="100" height="30" as="geometry">
                        <mxRectangle width="100" height="30" as="alternateBounds"/>
                    </mxGeometry>
                </mxCell>
                <mxCell id="WplAeC80GVG8oSaLDoGR-19" value="" style="shape=partialRectangle;collapsible=0;dropTarget=0;pointerEvents=0;fillColor=none;top=0;left=0;bottom=1;right=0;points=[[0,0.5],[1,0.5]];portConstraint=eastwest;" vertex="1" parent="WplAeC80GVG8oSaLDoGR-0">
                    <mxGeometry y="210" width="210" height="30" as="geometry"/>
                </mxCell>
                <mxCell id="WplAeC80GVG8oSaLDoGR-20" value="Get Event" style="shape=partialRectangle;connectable=0;fillColor=none;top=0;left=0;bottom=0;right=0;fontStyle=0;overflow=hidden;" vertex="1" parent="WplAeC80GVG8oSaLDoGR-19">
                    <mxGeometry width="110" height="30" as="geometry">
                        <mxRectangle width="110" height="30" as="alternateBounds"/>
                    </mxGeometry>
                </mxCell>
                <mxCell id="WplAeC80GVG8oSaLDoGR-21" value="" style="shape=partialRectangle;connectable=0;fillColor=none;top=0;left=0;bottom=0;right=0;align=left;spacingLeft=6;fontStyle=5;overflow=hidden;" vertex="1" parent="WplAeC80GVG8oSaLDoGR-19">
                    <mxGeometry x="110" width="100" height="30" as="geometry">
                        <mxRectangle width="100" height="30" as="alternateBounds"/>
                    </mxGeometry>
                </mxCell>
                <mxCell id="YcVvt0ajo0OJHfzqdw58-0" value="Event DAO" style="shape=table;startSize=30;container=1;collapsible=1;childLayout=tableLayout;fixedRows=1;rowLines=0;fontStyle=1;align=center;resizeLast=1;" vertex="1" parent="SCy3Kb6sFU_jo6mRdR9g-1">
                    <mxGeometry x="45" y="820" width="210" height="240" as="geometry"/>
                </mxCell>
                <mxCell id="YcVvt0ajo0OJHfzqdw58-1" value="" style="shape=tableRow;horizontal=0;startSize=0;swimlaneHead=0;swimlaneBody=0;fillColor=none;collapsible=0;dropTarget=0;points=[[0,0.5],[1,0.5]];portConstraint=eastwest;top=0;left=0;right=0;bottom=1;" vertex="1" parent="YcVvt0ajo0OJHfzqdw58-0">
                    <mxGeometry y="30" width="210" height="30" as="geometry"/>
                </mxCell>
                <mxCell id="YcVvt0ajo0OJHfzqdw58-2" value="Responsibilities" style="shape=partialRectangle;connectable=0;fillColor=none;top=0;left=0;bottom=0;right=0;fontStyle=1;overflow=hidden;" vertex="1" parent="YcVvt0ajo0OJHfzqdw58-1">
                    <mxGeometry width="110" height="30" as="geometry">
                        <mxRectangle width="110" height="30" as="alternateBounds"/>
                    </mxGeometry>
                </mxCell>
                <mxCell id="YcVvt0ajo0OJHfzqdw58-3" value="Collaborations" style="shape=partialRectangle;connectable=0;fillColor=none;top=0;left=0;bottom=0;right=0;align=left;spacingLeft=6;fontStyle=1;overflow=hidden;" vertex="1" parent="YcVvt0ajo0OJHfzqdw58-1">
                    <mxGeometry x="110" width="100" height="30" as="geometry">
                        <mxRectangle width="100" height="30" as="alternateBounds"/>
                    </mxGeometry>
                </mxCell>
                <mxCell id="YcVvt0ajo0OJHfzqdw58-4" value="" style="shape=tableRow;horizontal=0;startSize=0;swimlaneHead=0;swimlaneBody=0;fillColor=none;collapsible=0;dropTarget=0;points=[[0,0.5],[1,0.5]];portConstraint=eastwest;top=0;left=0;right=0;bottom=0;" vertex="1" parent="YcVvt0ajo0OJHfzqdw58-0">
                    <mxGeometry y="60" width="210" height="30" as="geometry"/>
                </mxCell>
                <mxCell id="YcVvt0ajo0OJHfzqdw58-5" value="Create Event" style="shape=partialRectangle;connectable=0;fillColor=none;top=0;left=0;bottom=0;right=0;editable=1;overflow=hidden;" vertex="1" parent="YcVvt0ajo0OJHfzqdw58-4">
                    <mxGeometry width="110" height="30" as="geometry">
                        <mxRectangle width="110" height="30" as="alternateBounds"/>
                    </mxGeometry>
                </mxCell>
                <mxCell id="YcVvt0ajo0OJHfzqdw58-6" value="" style="shape=partialRectangle;connectable=0;fillColor=none;top=0;left=0;bottom=0;right=0;align=left;spacingLeft=6;overflow=hidden;" vertex="1" parent="YcVvt0ajo0OJHfzqdw58-4">
                    <mxGeometry x="110" width="100" height="30" as="geometry">
                        <mxRectangle width="100" height="30" as="alternateBounds"/>
                    </mxGeometry>
                </mxCell>
                <mxCell id="YcVvt0ajo0OJHfzqdw58-7" value="" style="shape=tableRow;horizontal=0;startSize=0;swimlaneHead=0;swimlaneBody=0;fillColor=none;collapsible=0;dropTarget=0;points=[[0,0.5],[1,0.5]];portConstraint=eastwest;top=0;left=0;right=0;bottom=0;" vertex="1" parent="YcVvt0ajo0OJHfzqdw58-0">
                    <mxGeometry y="90" width="210" height="30" as="geometry"/>
                </mxCell>
                <mxCell id="YcVvt0ajo0OJHfzqdw58-8" value="Update Event" style="shape=partialRectangle;connectable=0;fillColor=none;top=0;left=0;bottom=0;right=0;editable=1;overflow=hidden;" vertex="1" parent="YcVvt0ajo0OJHfzqdw58-7">
                    <mxGeometry width="110" height="30" as="geometry">
                        <mxRectangle width="110" height="30" as="alternateBounds"/>
                    </mxGeometry>
                </mxCell>
                <mxCell id="YcVvt0ajo0OJHfzqdw58-9" value="" style="shape=partialRectangle;connectable=0;fillColor=none;top=0;left=0;bottom=0;right=0;align=left;spacingLeft=6;overflow=hidden;" vertex="1" parent="YcVvt0ajo0OJHfzqdw58-7">
                    <mxGeometry x="110" width="100" height="30" as="geometry">
                        <mxRectangle width="100" height="30" as="alternateBounds"/>
                    </mxGeometry>
                </mxCell>
                <mxCell id="YcVvt0ajo0OJHfzqdw58-10" value="" style="shape=partialRectangle;collapsible=0;dropTarget=0;pointerEvents=0;fillColor=none;top=0;left=0;bottom=0;right=0;points=[[0,0.5],[1,0.5]];portConstraint=eastwest;fontSize=11;" vertex="1" parent="YcVvt0ajo0OJHfzqdw58-0">
                    <mxGeometry y="120" width="210" height="30" as="geometry"/>
                </mxCell>
                <mxCell id="YcVvt0ajo0OJHfzqdw58-11" value="Delete Event" style="shape=partialRectangle;connectable=0;fillColor=none;top=0;left=0;bottom=0;right=0;editable=1;overflow=hidden;fontSize=11;" vertex="1" parent="YcVvt0ajo0OJHfzqdw58-10">
                    <mxGeometry width="110" height="30" as="geometry">
                        <mxRectangle width="110" height="30" as="alternateBounds"/>
                    </mxGeometry>
                </mxCell>
                <mxCell id="YcVvt0ajo0OJHfzqdw58-12" value="" style="shape=partialRectangle;connectable=0;fillColor=none;top=0;left=0;bottom=0;right=0;align=left;spacingLeft=6;overflow=hidden;fontSize=11;" vertex="1" parent="YcVvt0ajo0OJHfzqdw58-10">
                    <mxGeometry x="110" width="100" height="30" as="geometry">
                        <mxRectangle width="100" height="30" as="alternateBounds"/>
                    </mxGeometry>
                </mxCell>
                <mxCell id="YcVvt0ajo0OJHfzqdw58-13" value="" style="shape=tableRow;horizontal=0;startSize=0;swimlaneHead=0;swimlaneBody=0;fillColor=none;collapsible=0;dropTarget=0;points=[[0,0.5],[1,0.5]];portConstraint=eastwest;top=0;left=0;right=0;bottom=0;" vertex="1" parent="YcVvt0ajo0OJHfzqdw58-0">
                    <mxGeometry y="150" width="210" height="30" as="geometry"/>
                </mxCell>
                <mxCell id="YcVvt0ajo0OJHfzqdw58-14" value="Get User Events" style="shape=partialRectangle;connectable=0;fillColor=none;top=0;left=0;bottom=0;right=0;editable=1;overflow=hidden;" vertex="1" parent="YcVvt0ajo0OJHfzqdw58-13">
                    <mxGeometry width="110" height="30" as="geometry">
                        <mxRectangle width="110" height="30" as="alternateBounds"/>
                    </mxGeometry>
                </mxCell>
                <mxCell id="YcVvt0ajo0OJHfzqdw58-15" value="" style="shape=partialRectangle;connectable=0;fillColor=none;top=0;left=0;bottom=0;right=0;align=left;spacingLeft=6;overflow=hidden;" vertex="1" parent="YcVvt0ajo0OJHfzqdw58-13">
                    <mxGeometry x="110" width="100" height="30" as="geometry">
                        <mxRectangle width="100" height="30" as="alternateBounds"/>
                    </mxGeometry>
                </mxCell>
                <mxCell id="YcVvt0ajo0OJHfzqdw58-16" value="" style="shape=partialRectangle;collapsible=0;dropTarget=0;pointerEvents=0;fillColor=none;top=0;left=0;bottom=1;right=0;points=[[0,0.5],[1,0.5]];portConstraint=eastwest;" vertex="1" parent="YcVvt0ajo0OJHfzqdw58-0">
                    <mxGeometry y="180" width="210" height="30" as="geometry"/>
                </mxCell>
                <mxCell id="YcVvt0ajo0OJHfzqdw58-17" value="Get Inst. Events" style="shape=partialRectangle;connectable=0;fillColor=none;top=0;left=0;bottom=0;right=0;fontStyle=0;overflow=hidden;" vertex="1" parent="YcVvt0ajo0OJHfzqdw58-16">
                    <mxGeometry width="110" height="30" as="geometry">
                        <mxRectangle width="110" height="30" as="alternateBounds"/>
                    </mxGeometry>
                </mxCell>
                <mxCell id="YcVvt0ajo0OJHfzqdw58-18" value="" style="shape=partialRectangle;connectable=0;fillColor=none;top=0;left=0;bottom=0;right=0;align=left;spacingLeft=6;fontStyle=4;overflow=hidden;" vertex="1" parent="YcVvt0ajo0OJHfzqdw58-16">
                    <mxGeometry x="110" width="100" height="30" as="geometry">
                        <mxRectangle width="100" height="30" as="alternateBounds"/>
                    </mxGeometry>
                </mxCell>
                <mxCell id="YcVvt0ajo0OJHfzqdw58-19" value="" style="shape=partialRectangle;collapsible=0;dropTarget=0;pointerEvents=0;fillColor=none;top=0;left=0;bottom=1;right=0;points=[[0,0.5],[1,0.5]];portConstraint=eastwest;" vertex="1" parent="YcVvt0ajo0OJHfzqdw58-0">
                    <mxGeometry y="210" width="210" height="30" as="geometry"/>
                </mxCell>
                <mxCell id="YcVvt0ajo0OJHfzqdw58-20" value="Get Event" style="shape=partialRectangle;connectable=0;fillColor=none;top=0;left=0;bottom=0;right=0;fontStyle=0;overflow=hidden;" vertex="1" parent="YcVvt0ajo0OJHfzqdw58-19">
                    <mxGeometry width="110" height="30" as="geometry">
                        <mxRectangle width="110" height="30" as="alternateBounds"/>
                    </mxGeometry>
                </mxCell>
                <mxCell id="YcVvt0ajo0OJHfzqdw58-21" value="" style="shape=partialRectangle;connectable=0;fillColor=none;top=0;left=0;bottom=0;right=0;align=left;spacingLeft=6;fontStyle=5;overflow=hidden;" vertex="1" parent="YcVvt0ajo0OJHfzqdw58-19">
                    <mxGeometry x="110" width="100" height="30" as="geometry">
                        <mxRectangle width="100" height="30" as="alternateBounds"/>
                    </mxGeometry>
                </mxCell>
                <mxCell id="2ebTCo5tHMjbVyAAaOP7-22" value="Transaction DAO" style="shape=table;startSize=30;container=1;collapsible=1;childLayout=tableLayout;fixedRows=1;rowLines=0;fontStyle=1;align=center;resizeLast=1;" vertex="1" parent="SCy3Kb6sFU_jo6mRdR9g-1">
                    <mxGeometry x="320" y="820" width="280" height="150" as="geometry"/>
                </mxCell>
                <mxCell id="2ebTCo5tHMjbVyAAaOP7-23" value="" style="shape=tableRow;horizontal=0;startSize=0;swimlaneHead=0;swimlaneBody=0;fillColor=none;collapsible=0;dropTarget=0;points=[[0,0.5],[1,0.5]];portConstraint=eastwest;top=0;left=0;right=0;bottom=1;" vertex="1" parent="2ebTCo5tHMjbVyAAaOP7-22">
                    <mxGeometry y="30" width="280" height="30" as="geometry"/>
                </mxCell>
                <mxCell id="2ebTCo5tHMjbVyAAaOP7-24" value="Responsibilities" style="shape=partialRectangle;connectable=0;fillColor=none;top=0;left=0;bottom=0;right=0;fontStyle=1;overflow=hidden;" vertex="1" parent="2ebTCo5tHMjbVyAAaOP7-23">
                    <mxGeometry width="180" height="30" as="geometry">
                        <mxRectangle width="180" height="30" as="alternateBounds"/>
                    </mxGeometry>
                </mxCell>
                <mxCell id="2ebTCo5tHMjbVyAAaOP7-25" value="Collaborations" style="shape=partialRectangle;connectable=0;fillColor=none;top=0;left=0;bottom=0;right=0;align=left;spacingLeft=6;fontStyle=1;overflow=hidden;" vertex="1" parent="2ebTCo5tHMjbVyAAaOP7-23">
                    <mxGeometry x="180" width="100" height="30" as="geometry">
                        <mxRectangle width="100" height="30" as="alternateBounds"/>
                    </mxGeometry>
                </mxCell>
                <mxCell id="2ebTCo5tHMjbVyAAaOP7-26" value="" style="shape=tableRow;horizontal=0;startSize=0;swimlaneHead=0;swimlaneBody=0;fillColor=none;collapsible=0;dropTarget=0;points=[[0,0.5],[1,0.5]];portConstraint=eastwest;top=0;left=0;right=0;bottom=0;" vertex="1" parent="2ebTCo5tHMjbVyAAaOP7-22">
                    <mxGeometry y="60" width="280" height="30" as="geometry"/>
                </mxCell>
                <mxCell id="2ebTCo5tHMjbVyAAaOP7-27" value="Create transaction" style="shape=partialRectangle;connectable=0;fillColor=none;top=0;left=0;bottom=0;right=0;editable=1;overflow=hidden;" vertex="1" parent="2ebTCo5tHMjbVyAAaOP7-26">
                    <mxGeometry width="180" height="30" as="geometry">
                        <mxRectangle width="180" height="30" as="alternateBounds"/>
                    </mxGeometry>
                </mxCell>
                <mxCell id="2ebTCo5tHMjbVyAAaOP7-28" value="" style="shape=partialRectangle;connectable=0;fillColor=none;top=0;left=0;bottom=0;right=0;align=left;spacingLeft=6;overflow=hidden;" vertex="1" parent="2ebTCo5tHMjbVyAAaOP7-26">
                    <mxGeometry x="180" width="100" height="30" as="geometry">
                        <mxRectangle width="100" height="30" as="alternateBounds"/>
                    </mxGeometry>
                </mxCell>
                <mxCell id="2ebTCo5tHMjbVyAAaOP7-29" value="" style="shape=tableRow;horizontal=0;startSize=0;swimlaneHead=0;swimlaneBody=0;fillColor=none;collapsible=0;dropTarget=0;points=[[0,0.5],[1,0.5]];portConstraint=eastwest;top=0;left=0;right=0;bottom=0;" vertex="1" parent="2ebTCo5tHMjbVyAAaOP7-22">
                    <mxGeometry y="90" width="280" height="30" as="geometry"/>
                </mxCell>
                <mxCell id="2ebTCo5tHMjbVyAAaOP7-30" value="Update User's last donated time" style="shape=partialRectangle;connectable=0;fillColor=none;top=0;left=0;bottom=0;right=0;editable=1;overflow=hidden;" vertex="1" parent="2ebTCo5tHMjbVyAAaOP7-29">
                    <mxGeometry width="180" height="30" as="geometry">
                        <mxRectangle width="180" height="30" as="alternateBounds"/>
                    </mxGeometry>
                </mxCell>
                <mxCell id="2ebTCo5tHMjbVyAAaOP7-31" value="" style="shape=partialRectangle;connectable=0;fillColor=none;top=0;left=0;bottom=0;right=0;align=left;spacingLeft=6;overflow=hidden;" vertex="1" parent="2ebTCo5tHMjbVyAAaOP7-29">
                    <mxGeometry x="180" width="100" height="30" as="geometry">
                        <mxRectangle width="100" height="30" as="alternateBounds"/>
                    </mxGeometry>
                </mxCell>
                <mxCell id="2ebTCo5tHMjbVyAAaOP7-32" value="" style="shape=partialRectangle;collapsible=0;dropTarget=0;pointerEvents=0;fillColor=none;top=0;left=0;bottom=1;right=0;points=[[0,0.5],[1,0.5]];portConstraint=eastwest;" vertex="1" parent="2ebTCo5tHMjbVyAAaOP7-22">
                    <mxGeometry y="120" width="280" height="30" as="geometry"/>
                </mxCell>
                <mxCell id="2ebTCo5tHMjbVyAAaOP7-33" value="Update number of bags in inst." style="shape=partialRectangle;connectable=0;fillColor=none;top=0;left=0;bottom=0;right=0;fontStyle=0;overflow=hidden;" vertex="1" parent="2ebTCo5tHMjbVyAAaOP7-32">
                    <mxGeometry width="180" height="30" as="geometry">
                        <mxRectangle width="180" height="30" as="alternateBounds"/>
                    </mxGeometry>
                </mxCell>
                <mxCell id="2ebTCo5tHMjbVyAAaOP7-34" value="" style="shape=partialRectangle;connectable=0;fillColor=none;top=0;left=0;bottom=0;right=0;align=left;spacingLeft=6;fontStyle=5;overflow=hidden;" vertex="1" parent="2ebTCo5tHMjbVyAAaOP7-32">
                    <mxGeometry x="180" width="100" height="30" as="geometry">
                        <mxRectangle width="100" height="30" as="alternateBounds"/>
                    </mxGeometry>
                </mxCell>
            </root>
        </mxGraphModel>
    </diagram>
    <diagram id="1_JVx6NQcP4Yt9ob2DBl" name="Event Activity">
        <mxGraphModel dx="820" dy="462" grid="1" gridSize="10" guides="1" tooltips="1" connect="1" arrows="1" fold="1" page="1" pageScale="1" pageWidth="850" pageHeight="1100" math="0" shadow="0">
            <root>
                <mxCell id="aDghzlmtOEEkzEwvL-jS-0"/>
                <mxCell id="aDghzlmtOEEkzEwvL-jS-1" parent="aDghzlmtOEEkzEwvL-jS-0"/>
                <mxCell id="udXHwdcwswHCbYu0ILeg-0" value="Alternative&amp;nbsp;" style="shape=umlFrame;whiteSpace=wrap;html=1;" parent="aDghzlmtOEEkzEwvL-jS-1" vertex="1">
                    <mxGeometry x="240" y="420" width="510" height="190" as="geometry"/>
                </mxCell>
                <mxCell id="tt-pMoA_5IqYp2kbDNKd-2" value="&lt;span style=&quot;font-size: 18px ; font-weight: 700&quot;&gt;Instituion&lt;/span&gt;" style="shape=umlLifeline;perimeter=lifelinePerimeter;whiteSpace=wrap;html=1;container=1;collapsible=0;recursiveResize=0;outlineConnect=0;fontSize=12;" parent="aDghzlmtOEEkzEwvL-jS-1" vertex="1">
                    <mxGeometry x="310" y="300" width="100" height="580" as="geometry"/>
                </mxCell>
                <mxCell id="tt-pMoA_5IqYp2kbDNKd-6" value="" style="html=1;points=[];perimeter=orthogonalPerimeter;fontSize=12;" parent="tt-pMoA_5IqYp2kbDNKd-2" vertex="1">
                    <mxGeometry x="45" y="80" width="10" height="460" as="geometry"/>
                </mxCell>
                <mxCell id="tt-pMoA_5IqYp2kbDNKd-4" value="DAO" style="shape=umlLifeline;perimeter=lifelinePerimeter;whiteSpace=wrap;html=1;container=1;collapsible=0;recursiveResize=0;outlineConnect=0;fontSize=12;" parent="aDghzlmtOEEkzEwvL-jS-1" vertex="1">
                    <mxGeometry x="470" y="300" width="100" height="580" as="geometry"/>
                </mxCell>
                <mxCell id="Gj6sqKOXDR0qHtFvYXJQ-0" value="" style="html=1;points=[];perimeter=orthogonalPerimeter;fontSize=12;" parent="tt-pMoA_5IqYp2kbDNKd-4" vertex="1">
                    <mxGeometry x="45" y="80" width="10" height="440" as="geometry"/>
                </mxCell>
                <mxCell id="ax5FDWNTgviS5jDJAOVc-2" value="" style="endArrow=open;html=1;endSize=12;startArrow=none;startSize=14;startFill=0;edgeStyle=orthogonalEdgeStyle;align=left;verticalAlign=bottom;fontSize=12;entryX=-0.023;entryY=0.199;entryDx=0;entryDy=0;entryPerimeter=0;" parent="tt-pMoA_5IqYp2kbDNKd-4" target="ax5FDWNTgviS5jDJAOVc-1" edge="1">
                    <mxGeometry x="-1" y="3" relative="1" as="geometry">
                        <mxPoint x="60" y="169" as="sourcePoint"/>
                        <mxPoint x="175" y="164.66" as="targetPoint"/>
                        <Array as="points"/>
                    </mxGeometry>
                </mxCell>
                <mxCell id="RF_INsVU_Fu4TSAUK-xB-0" value="Institution Dao" style="shape=umlLifeline;perimeter=lifelinePerimeter;whiteSpace=wrap;html=1;container=1;collapsible=0;recursiveResize=0;outlineConnect=0;fontSize=12;" parent="aDghzlmtOEEkzEwvL-jS-1" vertex="1">
                    <mxGeometry x="600" y="300" width="150" height="580" as="geometry"/>
                </mxCell>
                <mxCell id="0ulF3MSr03F4fxBXNDI6-0" value="Alternative&amp;nbsp;" style="shape=umlFrame;whiteSpace=wrap;html=1;" parent="RF_INsVU_Fu4TSAUK-xB-0" vertex="1">
                    <mxGeometry x="-360" y="320" width="510" height="190" as="geometry"/>
                </mxCell>
                <mxCell id="0ulF3MSr03F4fxBXNDI6-1" value="" style="endArrow=open;html=1;endSize=12;startArrow=none;startSize=14;startFill=0;edgeStyle=orthogonalEdgeStyle;align=left;verticalAlign=bottom;fontSize=12;exitX=1.038;exitY=0.389;exitDx=0;exitDy=0;exitPerimeter=0;entryX=-0.35;entryY=0.618;entryDx=0;entryDy=0;entryPerimeter=0;rounded=0;" parent="RF_INsVU_Fu4TSAUK-xB-0" target="ax5FDWNTgviS5jDJAOVc-1" edge="1">
                    <mxGeometry x="-1" y="3" relative="1" as="geometry">
                        <mxPoint x="-70" y="364.78999999999996" as="sourcePoint"/>
                        <mxPoint x="45" y="364.65999999999997" as="targetPoint"/>
                        <Array as="points"/>
                    </mxGeometry>
                </mxCell>
                <mxCell id="0ulF3MSr03F4fxBXNDI6-2" value="" style="endArrow=open;html=1;endSize=12;startArrow=none;startSize=14;startFill=0;edgeStyle=orthogonalEdgeStyle;align=left;verticalAlign=bottom;fontSize=12;exitX=1.038;exitY=0.389;exitDx=0;exitDy=0;exitPerimeter=0;rounded=0;" parent="RF_INsVU_Fu4TSAUK-xB-0" edge="1">
                    <mxGeometry x="-1" y="3" relative="1" as="geometry">
                        <mxPoint x="-234.6199999999999" y="439.49" as="sourcePoint"/>
                        <mxPoint x="-80.5" y="346" as="targetPoint"/>
                        <Array as="points">
                            <mxPoint x="-140" y="346"/>
                            <mxPoint x="-140" y="346"/>
                        </Array>
                    </mxGeometry>
                </mxCell>
                <mxCell id="0ulF3MSr03F4fxBXNDI6-3" value="Edit Event" style="text;html=1;align=center;verticalAlign=middle;resizable=0;points=[];autosize=1;strokeColor=none;fillColor=none;fontSize=12;" parent="RF_INsVU_Fu4TSAUK-xB-0" vertex="1">
                    <mxGeometry x="-200" y="320" width="70" height="20" as="geometry"/>
                </mxCell>
                <mxCell id="0ulF3MSr03F4fxBXNDI6-4" value="Accept Edit" style="text;html=1;align=center;verticalAlign=middle;resizable=0;points=[];autosize=1;strokeColor=none;fillColor=none;fontSize=12;" parent="RF_INsVU_Fu4TSAUK-xB-0" vertex="1">
                    <mxGeometry x="-55" y="340" width="80" height="20" as="geometry"/>
                </mxCell>
                <mxCell id="0ulF3MSr03F4fxBXNDI6-5" value="" style="html=1;verticalAlign=bottom;labelBackgroundColor=none;endArrow=none;endFill=0;dashed=1;fontSize=12;startArrow=classic;startFill=1;" parent="RF_INsVU_Fu4TSAUK-xB-0" edge="1">
                    <mxGeometry width="160" relative="1" as="geometry">
                        <mxPoint x="-70" y="401" as="sourcePoint"/>
                        <mxPoint x="49.5" y="401" as="targetPoint"/>
                    </mxGeometry>
                </mxCell>
                <mxCell id="0ulF3MSr03F4fxBXNDI6-6" value="IF valide edit Event" style="text;strokeColor=none;fillColor=none;spacingLeft=4;spacingRight=4;overflow=hidden;rotatable=0;points=[[0,0.5],[1,0.5]];portConstraint=eastwest;fontSize=11;" parent="RF_INsVU_Fu4TSAUK-xB-0" vertex="1">
                    <mxGeometry x="-360" y="360" width="110" height="30" as="geometry"/>
                </mxCell>
                <mxCell id="0ulF3MSr03F4fxBXNDI6-7" value="Else" style="text;strokeColor=none;fillColor=none;align=left;verticalAlign=middle;spacingLeft=4;spacingRight=4;overflow=hidden;points=[[0,0.5],[1,0.5]];portConstraint=eastwest;rotatable=0;" parent="RF_INsVU_Fu4TSAUK-xB-0" vertex="1">
                    <mxGeometry x="-340" y="460" width="80" height="30" as="geometry"/>
                </mxCell>
                <mxCell id="0ulF3MSr03F4fxBXNDI6-8" value="" style="endArrow=classic;html=1;exitX=-0.176;exitY=0.481;exitDx=0;exitDy=0;exitPerimeter=0;entryX=1.093;entryY=0.5;entryDx=0;entryDy=0;entryPerimeter=0;dashed=1;" parent="RF_INsVU_Fu4TSAUK-xB-0" edge="1">
                    <mxGeometry width="50" height="50" relative="1" as="geometry">
                        <mxPoint x="-86.75999999999999" y="486.8299999999999" as="sourcePoint"/>
                        <mxPoint x="-234.06999999999994" y="485" as="targetPoint"/>
                    </mxGeometry>
                </mxCell>
                <mxCell id="0ulF3MSr03F4fxBXNDI6-9" value="&lt;span&gt;Refuse&lt;/span&gt;" style="text;html=1;strokeColor=none;fillColor=none;align=center;verticalAlign=middle;whiteSpace=wrap;rounded=0;" parent="RF_INsVU_Fu4TSAUK-xB-0" vertex="1">
                    <mxGeometry x="-220" y="460" width="80" height="30" as="geometry"/>
                </mxCell>
                <mxCell id="0ulF3MSr03F4fxBXNDI6-10" value="" style="endArrow=none;dashed=1;html=1;dashPattern=1 3;strokeWidth=2;startArrow=blockThin;startFill=1;" parent="RF_INsVU_Fu4TSAUK-xB-0" edge="1">
                    <mxGeometry width="50" height="50" relative="1" as="geometry">
                        <mxPoint x="-230" y="430" as="sourcePoint"/>
                        <mxPoint x="-90" y="430" as="targetPoint"/>
                    </mxGeometry>
                </mxCell>
                <mxCell id="0ulF3MSr03F4fxBXNDI6-11" value="&lt;span&gt;Accept&lt;/span&gt;" style="text;html=1;strokeColor=none;fillColor=none;align=center;verticalAlign=middle;whiteSpace=wrap;rounded=0;" parent="RF_INsVU_Fu4TSAUK-xB-0" vertex="1">
                    <mxGeometry x="-200" y="400" width="80" height="30" as="geometry"/>
                </mxCell>
                <mxCell id="0ulF3MSr03F4fxBXNDI6-12" value="" style="endArrow=none;dashed=1;html=1;dashPattern=1 3;strokeWidth=2;exitX=-0.001;exitY=0.677;exitDx=0;exitDy=0;exitPerimeter=0;" parent="RF_INsVU_Fu4TSAUK-xB-0" source="0ulF3MSr03F4fxBXNDI6-0" edge="1">
                    <mxGeometry width="50" height="50" relative="1" as="geometry">
                        <mxPoint x="-150" y="480" as="sourcePoint"/>
                        <mxPoint x="150" y="449" as="targetPoint"/>
                    </mxGeometry>
                </mxCell>
                <mxCell id="jKKKujjsMRR3bN3Y__Gj-0" value="" style="endArrow=open;html=1;endSize=12;startArrow=none;startSize=14;startFill=0;edgeStyle=orthogonalEdgeStyle;align=left;verticalAlign=bottom;fontSize=12;exitX=1.038;exitY=0.389;exitDx=0;exitDy=0;exitPerimeter=0;" parent="aDghzlmtOEEkzEwvL-jS-1" source="tt-pMoA_5IqYp2kbDNKd-6" target="tt-pMoA_5IqYp2kbDNKd-4" edge="1">
                    <mxGeometry x="-1" y="3" relative="1" as="geometry">
                        <mxPoint x="370" y="450" as="sourcePoint"/>
                        <mxPoint x="560" y="430" as="targetPoint"/>
                        <Array as="points">
                            <mxPoint x="460" y="446"/>
                            <mxPoint x="460" y="446"/>
                        </Array>
                    </mxGeometry>
                </mxCell>
                <mxCell id="ax5FDWNTgviS5jDJAOVc-0" value="Create Event" style="text;html=1;align=center;verticalAlign=middle;resizable=0;points=[];autosize=1;strokeColor=none;fillColor=none;fontSize=12;" parent="aDghzlmtOEEkzEwvL-jS-1" vertex="1">
                    <mxGeometry x="390" y="420" width="90" height="20" as="geometry"/>
                </mxCell>
                <mxCell id="ax5FDWNTgviS5jDJAOVc-3" value="Accept Event" style="text;html=1;align=center;verticalAlign=middle;resizable=0;points=[];autosize=1;strokeColor=none;fillColor=none;fontSize=12;" parent="aDghzlmtOEEkzEwvL-jS-1" vertex="1">
                    <mxGeometry x="540" y="440" width="90" height="20" as="geometry"/>
                </mxCell>
                <mxCell id="ax5FDWNTgviS5jDJAOVc-8" value="" style="html=1;verticalAlign=bottom;labelBackgroundColor=none;endArrow=none;endFill=0;dashed=1;fontSize=12;startArrow=none;startFill=1;" parent="aDghzlmtOEEkzEwvL-jS-1" source="ax5FDWNTgviS5jDJAOVc-1" target="RF_INsVU_Fu4TSAUK-xB-0" edge="1">
                    <mxGeometry width="160" relative="1" as="geometry">
                        <mxPoint x="530" y="501" as="sourcePoint"/>
                        <mxPoint x="639.8400000000001" y="546" as="targetPoint"/>
                    </mxGeometry>
                </mxCell>
                <mxCell id="rY23scBUV142XokkgXLj-2" value="IF valide Event" style="text;strokeColor=none;fillColor=none;spacingLeft=4;spacingRight=4;overflow=hidden;rotatable=0;points=[[0,0.5],[1,0.5]];portConstraint=eastwest;fontSize=12;" parent="aDghzlmtOEEkzEwvL-jS-1" vertex="1">
                    <mxGeometry x="250" y="460" width="100" height="30" as="geometry"/>
                </mxCell>
                <mxCell id="udXHwdcwswHCbYu0ILeg-6" value="Else" style="text;strokeColor=none;fillColor=none;align=left;verticalAlign=middle;spacingLeft=4;spacingRight=4;overflow=hidden;points=[[0,0.5],[1,0.5]];portConstraint=eastwest;rotatable=0;" parent="aDghzlmtOEEkzEwvL-jS-1" vertex="1">
                    <mxGeometry x="260" y="560" width="80" height="30" as="geometry"/>
                </mxCell>
                <mxCell id="udXHwdcwswHCbYu0ILeg-10" value="" style="endArrow=classic;html=1;exitX=-0.176;exitY=0.481;exitDx=0;exitDy=0;exitPerimeter=0;dashed=1;" parent="aDghzlmtOEEkzEwvL-jS-1" source="Gj6sqKOXDR0qHtFvYXJQ-0" target="tt-pMoA_5IqYp2kbDNKd-6" edge="1">
                    <mxGeometry width="50" height="50" relative="1" as="geometry">
                        <mxPoint x="480" y="520" as="sourcePoint"/>
                        <mxPoint x="530" y="470" as="targetPoint"/>
                    </mxGeometry>
                </mxCell>
                <mxCell id="udXHwdcwswHCbYu0ILeg-11" value="&lt;span&gt;Refuse&lt;/span&gt;" style="text;html=1;strokeColor=none;fillColor=none;align=center;verticalAlign=middle;whiteSpace=wrap;rounded=0;" parent="aDghzlmtOEEkzEwvL-jS-1" vertex="1">
                    <mxGeometry x="380" y="560" width="80" height="30" as="geometry"/>
                </mxCell>
                <mxCell id="udXHwdcwswHCbYu0ILeg-12" value="" style="endArrow=none;dashed=1;html=1;dashPattern=1 3;strokeWidth=2;startArrow=blockThin;startFill=1;" parent="aDghzlmtOEEkzEwvL-jS-1" edge="1">
                    <mxGeometry width="50" height="50" relative="1" as="geometry">
                        <mxPoint x="370" y="530" as="sourcePoint"/>
                        <mxPoint x="510" y="530" as="targetPoint"/>
                    </mxGeometry>
                </mxCell>
                <mxCell id="udXHwdcwswHCbYu0ILeg-13" value="&lt;span&gt;Accept&lt;/span&gt;" style="text;html=1;strokeColor=none;fillColor=none;align=center;verticalAlign=middle;whiteSpace=wrap;rounded=0;" parent="aDghzlmtOEEkzEwvL-jS-1" vertex="1">
                    <mxGeometry x="400" y="500" width="80" height="30" as="geometry"/>
                </mxCell>
                <mxCell id="udXHwdcwswHCbYu0ILeg-14" value="" style="endArrow=none;dashed=1;html=1;dashPattern=1 3;strokeWidth=2;exitX=-0.001;exitY=0.677;exitDx=0;exitDy=0;exitPerimeter=0;" parent="aDghzlmtOEEkzEwvL-jS-1" source="udXHwdcwswHCbYu0ILeg-0" edge="1">
                    <mxGeometry width="50" height="50" relative="1" as="geometry">
                        <mxPoint x="450" y="580" as="sourcePoint"/>
                        <mxPoint x="750" y="549" as="targetPoint"/>
                    </mxGeometry>
                </mxCell>
                <mxCell id="ax5FDWNTgviS5jDJAOVc-1" value="" style="html=1;points=[];perimeter=orthogonalPerimeter;fontSize=12;" parent="aDghzlmtOEEkzEwvL-jS-1" vertex="1">
                    <mxGeometry x="670" y="375" width="10" height="470" as="geometry"/>
                </mxCell>
                <mxCell id="0ulF3MSr03F4fxBXNDI6-13" value="" style="html=1;verticalAlign=bottom;labelBackgroundColor=none;endArrow=none;endFill=0;dashed=1;fontSize=12;startArrow=classic;startFill=1;" parent="aDghzlmtOEEkzEwvL-jS-1" target="ax5FDWNTgviS5jDJAOVc-1" edge="1">
                    <mxGeometry width="160" relative="1" as="geometry">
                        <mxPoint x="530" y="501" as="sourcePoint"/>
                        <mxPoint x="674.5000000000002" y="501" as="targetPoint"/>
                    </mxGeometry>
                </mxCell>
                <mxCell id="e3Dii1xP-KifZrcEZzWv-0" value="Actor" style="shape=umlActor;verticalLabelPosition=bottom;verticalAlign=top;html=1;fontSize=11;" parent="aDghzlmtOEEkzEwvL-jS-1" vertex="1">
                    <mxGeometry x="330" y="220" width="30" height="60" as="geometry"/>
                </mxCell>
            </root>
        </mxGraphModel>
    </diagram>
    <diagram id="4U4-io9A4aeQdXhD1N0K" name="Transaction Activity">
        <mxGraphModel dx="1491" dy="840" grid="1" gridSize="10" guides="1" tooltips="1" connect="1" arrows="1" fold="1" page="1" pageScale="1" pageWidth="850" pageHeight="1100" math="0" shadow="0">
            <root>
                <mxCell id="mMh6v223Tg-FpIQAZi32-0"/>
                <mxCell id="mMh6v223Tg-FpIQAZi32-1" parent="mMh6v223Tg-FpIQAZi32-0"/>
                <mxCell id="910AFivzuZRo8TZvGyrh-0" value="Alternative&amp;nbsp;" style="shape=umlFrame;whiteSpace=wrap;html=1;" vertex="1" parent="mMh6v223Tg-FpIQAZi32-1">
                    <mxGeometry x="20" y="520" width="570" height="490" as="geometry"/>
                </mxCell>
                <mxCell id="gznPi7bK63B_fJDzahkn-0" value="Alternative&amp;nbsp;" style="shape=umlFrame;whiteSpace=wrap;html=1;" vertex="1" parent="mMh6v223Tg-FpIQAZi32-1">
                    <mxGeometry x="20" y="390" width="570" height="730" as="geometry"/>
                </mxCell>
                <mxCell id="lNc6CZuqr3lDrRgqioic-2" value="Donor" style="shape=umlActor;verticalLabelPosition=bottom;verticalAlign=top;html=1;fontSize=11;" parent="mMh6v223Tg-FpIQAZi32-1" vertex="1">
                    <mxGeometry x="130" y="90" width="30" height="60" as="geometry"/>
                </mxCell>
                <mxCell id="lNc6CZuqr3lDrRgqioic-3" value="Transaction" style="shape=umlLifeline;perimeter=lifelinePerimeter;whiteSpace=wrap;html=1;container=1;collapsible=0;recursiveResize=0;outlineConnect=0;fontSize=11;" parent="mMh6v223Tg-FpIQAZi32-1" vertex="1">
                    <mxGeometry x="95" y="170" width="100" height="1060" as="geometry"/>
                </mxCell>
                <mxCell id="lNc6CZuqr3lDrRgqioic-0" value="" style="html=1;points=[];perimeter=orthogonalPerimeter;fontSize=11;" parent="lNc6CZuqr3lDrRgqioic-3" vertex="1">
                    <mxGeometry x="45" y="80" width="10" height="910" as="geometry"/>
                </mxCell>
                <mxCell id="lNc6CZuqr3lDrRgqioic-1" value="Transaction DAO" style="shape=umlLifeline;perimeter=lifelinePerimeter;whiteSpace=wrap;html=1;container=1;collapsible=0;recursiveResize=0;outlineConnect=0;fontSize=11;" parent="mMh6v223Tg-FpIQAZi32-1" vertex="1">
                    <mxGeometry x="280" y="160" width="130" height="1060" as="geometry"/>
                </mxCell>
                <mxCell id="lNc6CZuqr3lDrRgqioic-4" value="" style="html=1;points=[];perimeter=orthogonalPerimeter;fontSize=11;" parent="lNc6CZuqr3lDrRgqioic-1" vertex="1">
                    <mxGeometry x="60" y="90" width="10" height="910" as="geometry"/>
                </mxCell>
                <mxCell id="-zFHdBw6rewbVJO3jrP7-1" value="Verify ID" style="text;html=1;align=center;verticalAlign=middle;resizable=0;points=[];autosize=1;strokeColor=none;fillColor=none;fontSize=11;" parent="lNc6CZuqr3lDrRgqioic-1" vertex="1">
                    <mxGeometry x="70.00000000000006" y="190" width="60" height="20" as="geometry"/>
                </mxCell>
                <mxCell id="hK3dc9ZiFFOQUHbALWDG-17" value="Accepted Transaction" style="text;html=1;align=center;verticalAlign=middle;resizable=0;points=[];autosize=1;strokeColor=none;fillColor=none;" vertex="1" parent="lNc6CZuqr3lDrRgqioic-1">
                    <mxGeometry x="-100" y="540" width="130" height="20" as="geometry"/>
                </mxCell>
                <mxCell id="hK3dc9ZiFFOQUHbALWDG-16" value="" style="endArrow=none;endFill=0;endSize=12;html=1;fontSize=11;startArrow=classic;startFill=1;" edge="1" parent="lNc6CZuqr3lDrRgqioic-1">
                    <mxGeometry width="160" relative="1" as="geometry">
                        <mxPoint x="-130" y="570" as="sourcePoint"/>
                        <mxPoint x="50" y="570" as="targetPoint"/>
                        <Array as="points">
                            <mxPoint x="-24.5" y="570"/>
                        </Array>
                    </mxGeometry>
                </mxCell>
                <mxCell id="lNc6CZuqr3lDrRgqioic-5" value="DB" style="shape=umlLifeline;perimeter=lifelinePerimeter;whiteSpace=wrap;html=1;container=1;collapsible=0;recursiveResize=0;outlineConnect=0;fontSize=11;" parent="mMh6v223Tg-FpIQAZi32-1" vertex="1">
                    <mxGeometry x="510" y="170" width="100" height="1050" as="geometry"/>
                </mxCell>
                <mxCell id="lNc6CZuqr3lDrRgqioic-6" value="" style="html=1;points=[];perimeter=orthogonalPerimeter;fontSize=11;" parent="lNc6CZuqr3lDrRgqioic-5" vertex="1">
                    <mxGeometry x="45" y="90" width="10" height="890" as="geometry"/>
                </mxCell>
                <mxCell id="s6_-_CxwSaTNvzQGJdre-1" value="" style="endArrow=open;endFill=1;endSize=12;html=1;fontSize=11;entryX=-0.157;entryY=0.107;entryDx=0;entryDy=0;entryPerimeter=0;" parent="mMh6v223Tg-FpIQAZi32-1" target="lNc6CZuqr3lDrRgqioic-4" edge="1">
                    <mxGeometry width="160" relative="1" as="geometry">
                        <mxPoint x="150" y="347" as="sourcePoint"/>
                        <mxPoint x="340" y="310" as="targetPoint"/>
                    </mxGeometry>
                </mxCell>
                <mxCell id="s6_-_CxwSaTNvzQGJdre-2" value="Enter Donar ID" style="text;html=1;align=center;verticalAlign=middle;resizable=0;points=[];autosize=1;strokeColor=none;fillColor=none;fontSize=11;" parent="mMh6v223Tg-FpIQAZi32-1" vertex="1">
                    <mxGeometry x="150" y="280" width="90" height="20" as="geometry"/>
                </mxCell>
                <mxCell id="-zFHdBw6rewbVJO3jrP7-0" value="" style="endArrow=open;endFill=1;endSize=12;html=1;fontSize=11;" parent="mMh6v223Tg-FpIQAZi32-1" source="lNc6CZuqr3lDrRgqioic-1" target="lNc6CZuqr3lDrRgqioic-5" edge="1">
                    <mxGeometry width="160" relative="1" as="geometry">
                        <mxPoint x="349.9966666666668" y="343.32000000000005" as="sourcePoint"/>
                        <mxPoint x="559.6700000000002" y="343.32000000000005" as="targetPoint"/>
                        <Array as="points">
                            <mxPoint x="460" y="370"/>
                        </Array>
                    </mxGeometry>
                </mxCell>
                <mxCell id="p1PzvDyAIvB4iFQ5tvB1-0" value="" style="endArrow=classic;html=1;fontSize=11;dashed=1;" edge="1" parent="mMh6v223Tg-FpIQAZi32-1">
                    <mxGeometry width="50" height="50" relative="1" as="geometry">
                        <mxPoint x="550" y="413" as="sourcePoint"/>
                        <mxPoint x="345" y="413" as="targetPoint"/>
                        <Array as="points">
                            <mxPoint x="480" y="413"/>
                        </Array>
                    </mxGeometry>
                </mxCell>
                <mxCell id="p1PzvDyAIvB4iFQ5tvB1-1" value="Invalid" style="text;strokeColor=none;fillColor=none;align=left;verticalAlign=middle;spacingLeft=4;spacingRight=4;overflow=hidden;points=[[0,0.5],[1,0.5]];portConstraint=eastwest;rotatable=0;fontSize=11;" parent="mMh6v223Tg-FpIQAZi32-1" vertex="1">
                    <mxGeometry x="370" y="390" width="80" height="30" as="geometry"/>
                </mxCell>
                <mxCell id="i38o1b12wW3JF5Yiwgh2-1" value="" style="endArrow=open;endFill=1;endSize=12;html=1;fontSize=11;entryX=-0.226;entryY=0.066;entryDx=0;entryDy=0;entryPerimeter=0;" edge="1" parent="mMh6v223Tg-FpIQAZi32-1" target="lNc6CZuqr3lDrRgqioic-4">
                    <mxGeometry width="160" relative="1" as="geometry">
                        <mxPoint x="160" y="309" as="sourcePoint"/>
                        <mxPoint x="340" y="340" as="targetPoint"/>
                    </mxGeometry>
                </mxCell>
                <mxCell id="i38o1b12wW3JF5Yiwgh2-2" value="Enter acceptor&amp;nbsp;ID" style="text;html=1;align=center;verticalAlign=middle;resizable=0;points=[];autosize=1;strokeColor=none;fillColor=none;fontSize=11;" parent="mMh6v223Tg-FpIQAZi32-1" vertex="1">
                    <mxGeometry x="150" y="320" width="100" height="20" as="geometry"/>
                </mxCell>
                <mxCell id="GdqYPb7sQBpJs3IQs7yG-1" value="" style="endArrow=open;endFill=1;endSize=12;html=1;exitX=0.04;exitY=0.233;exitDx=0;exitDy=0;exitPerimeter=0;entryX=1.16;entryY=0.232;entryDx=0;entryDy=0;entryPerimeter=0;" edge="1" parent="mMh6v223Tg-FpIQAZi32-1" source="lNc6CZuqr3lDrRgqioic-4" target="lNc6CZuqr3lDrRgqioic-0">
                    <mxGeometry width="160" relative="1" as="geometry">
                        <mxPoint x="270" y="380" as="sourcePoint"/>
                        <mxPoint x="150" y="428" as="targetPoint"/>
                    </mxGeometry>
                </mxCell>
                <mxCell id="GdqYPb7sQBpJs3IQs7yG-2" value="Refuse Transaction" style="text;html=1;align=center;verticalAlign=middle;resizable=0;points=[];autosize=1;strokeColor=none;fillColor=none;" vertex="1" parent="mMh6v223Tg-FpIQAZi32-1">
                    <mxGeometry x="190" y="440" width="120" height="20" as="geometry"/>
                </mxCell>
                <mxCell id="GdqYPb7sQBpJs3IQs7yG-3" value="IF invalid ID" style="text;html=1;align=center;verticalAlign=middle;resizable=0;points=[];autosize=1;strokeColor=none;fillColor=none;" vertex="1" parent="mMh6v223Tg-FpIQAZi32-1">
                    <mxGeometry x="45" y="440" width="80" height="20" as="geometry"/>
                </mxCell>
                <mxCell id="hK3dc9ZiFFOQUHbALWDG-0" value="" style="endArrow=none;dashed=1;html=1;dashPattern=1 3;strokeWidth=2;exitX=-0.008;exitY=0.608;exitDx=0;exitDy=0;exitPerimeter=0;rounded=0;entryX=1.004;entryY=0.61;entryDx=0;entryDy=0;entryPerimeter=0;" edge="1" parent="mMh6v223Tg-FpIQAZi32-1" source="gznPi7bK63B_fJDzahkn-0" target="gznPi7bK63B_fJDzahkn-0">
                    <mxGeometry width="50" height="50" relative="1" as="geometry">
                        <mxPoint x="300" y="700" as="sourcePoint"/>
                        <mxPoint x="350" y="650" as="targetPoint"/>
                        <Array as="points"/>
                    </mxGeometry>
                </mxCell>
                <mxCell id="hK3dc9ZiFFOQUHbALWDG-12" value="Donor and recipient are users" style="text;html=1;align=center;verticalAlign=middle;resizable=0;points=[];autosize=1;strokeColor=none;fillColor=none;fontSize=11;" vertex="1" parent="mMh6v223Tg-FpIQAZi32-1">
                    <mxGeometry x="360.00000000000006" y="570" width="160" height="20" as="geometry"/>
                </mxCell>
                <mxCell id="hK3dc9ZiFFOQUHbALWDG-13" value="" style="endArrow=none;endFill=0;endSize=12;html=1;fontSize=11;startArrow=classic;startFill=1;dashed=1;" edge="1" parent="mMh6v223Tg-FpIQAZi32-1">
                    <mxGeometry width="160" relative="1" as="geometry">
                        <mxPoint x="350" y="590" as="sourcePoint"/>
                        <mxPoint x="555" y="590" as="targetPoint"/>
                        <Array as="points">
                            <mxPoint x="455.5" y="590"/>
                        </Array>
                    </mxGeometry>
                </mxCell>
                <mxCell id="hK3dc9ZiFFOQUHbALWDG-15" value="" style="endArrow=none;endFill=0;endSize=12;html=1;fontSize=11;startArrow=classic;startFill=1;dashed=1;" edge="1" parent="mMh6v223Tg-FpIQAZi32-1" target="lNc6CZuqr3lDrRgqioic-4">
                    <mxGeometry width="160" relative="1" as="geometry">
                        <mxPoint x="550" y="620" as="sourcePoint"/>
                        <mxPoint x="565" y="600" as="targetPoint"/>
                        <Array as="points">
                            <mxPoint x="466" y="620"/>
                        </Array>
                    </mxGeometry>
                </mxCell>
                <mxCell id="hK3dc9ZiFFOQUHbALWDG-1" value="&lt;font style=&quot;font-size: 10px&quot;&gt;IF valid ID with &lt;br&gt;donor user and recipient&lt;br&gt;&lt;/font&gt;" style="text;html=1;align=center;verticalAlign=middle;resizable=0;points=[];autosize=1;strokeColor=none;fillColor=none;fontSize=10;" vertex="1" parent="mMh6v223Tg-FpIQAZi32-1">
                    <mxGeometry x="20" y="615" width="120" height="30" as="geometry"/>
                </mxCell>
                <mxCell id="hK3dc9ZiFFOQUHbALWDG-20" value="Update last donated time" style="text;html=1;align=center;verticalAlign=middle;resizable=0;points=[];autosize=1;strokeColor=none;fillColor=none;fontSize=11;" vertex="1" parent="mMh6v223Tg-FpIQAZi32-1">
                    <mxGeometry x="350.00000000000006" y="630" width="140" height="20" as="geometry"/>
                </mxCell>
                <mxCell id="hK3dc9ZiFFOQUHbALWDG-21" value="Donor is inst. and recipeint is user" style="text;html=1;align=center;verticalAlign=middle;resizable=0;points=[];autosize=1;strokeColor=none;fillColor=none;fontSize=11;" vertex="1" parent="mMh6v223Tg-FpIQAZi32-1">
                    <mxGeometry x="350.00000000000006" y="840" width="180" height="20" as="geometry"/>
                </mxCell>
                <mxCell id="hK3dc9ZiFFOQUHbALWDG-22" value="" style="endArrow=none;endFill=0;endSize=12;html=1;fontSize=11;startArrow=classic;startFill=1;dashed=1;" edge="1" parent="mMh6v223Tg-FpIQAZi32-1" source="lNc6CZuqr3lDrRgqioic-4">
                    <mxGeometry width="160" relative="1" as="geometry">
                        <mxPoint x="350" y="840" as="sourcePoint"/>
                        <mxPoint x="550" y="860" as="targetPoint"/>
                        <Array as="points">
                            <mxPoint x="456" y="860"/>
                        </Array>
                    </mxGeometry>
                </mxCell>
                <mxCell id="hK3dc9ZiFFOQUHbALWDG-23" value="" style="endArrow=none;endFill=0;endSize=12;html=1;fontSize=11;startArrow=classic;startFill=1;dashed=1;" edge="1" parent="mMh6v223Tg-FpIQAZi32-1">
                    <mxGeometry width="160" relative="1" as="geometry">
                        <mxPoint x="555" y="890" as="sourcePoint"/>
                        <mxPoint x="355" y="890" as="targetPoint"/>
                        <Array as="points">
                            <mxPoint x="471" y="890"/>
                        </Array>
                    </mxGeometry>
                </mxCell>
                <mxCell id="hK3dc9ZiFFOQUHbALWDG-24" value="Update (decrement) blood bags" style="text;html=1;align=center;verticalAlign=middle;resizable=0;points=[];autosize=1;strokeColor=none;fillColor=none;fontSize=11;" vertex="1" parent="mMh6v223Tg-FpIQAZi32-1">
                    <mxGeometry x="355.00000000000006" y="900" width="170" height="20" as="geometry"/>
                </mxCell>
                <mxCell id="hK3dc9ZiFFOQUHbALWDG-25" value="" style="endArrow=none;endFill=0;endSize=12;html=1;fontSize=11;startArrow=classic;startFill=1;dashed=1;" edge="1" parent="mMh6v223Tg-FpIQAZi32-1" source="lNc6CZuqr3lDrRgqioic-0">
                    <mxGeometry width="160" relative="1" as="geometry">
                        <mxPoint x="160" y="960" as="sourcePoint"/>
                        <mxPoint x="340" y="960" as="targetPoint"/>
                        <Array as="points">
                            <mxPoint x="265.5" y="960"/>
                        </Array>
                    </mxGeometry>
                </mxCell>
                <mxCell id="hK3dc9ZiFFOQUHbALWDG-26" value="Accepted Transaction" style="text;html=1;align=center;verticalAlign=middle;resizable=0;points=[];autosize=1;strokeColor=none;fillColor=none;" vertex="1" parent="mMh6v223Tg-FpIQAZi32-1">
                    <mxGeometry x="190" y="930" width="130" height="20" as="geometry"/>
                </mxCell>
                <mxCell id="hK3dc9ZiFFOQUHbALWDG-29" value="&lt;font style=&quot;font-size: 10px&quot;&gt;IF valid ID with &lt;br&gt;donor inst. and&amp;nbsp; user&amp;nbsp;&lt;br&gt;recipient&lt;br&gt;&lt;/font&gt;" style="text;html=1;align=center;verticalAlign=middle;resizable=0;points=[];autosize=1;strokeColor=none;fillColor=none;fontSize=10;" vertex="1" parent="mMh6v223Tg-FpIQAZi32-1">
                    <mxGeometry x="30" y="880" width="110" height="40" as="geometry"/>
                </mxCell>
                <mxCell id="hK3dc9ZiFFOQUHbALWDG-30" value="&lt;font style=&quot;font-size: 10px&quot;&gt;IF valid ID with &lt;br&gt;donor user and&lt;br&gt;&amp;nbsp; recipient inst.&lt;br&gt;&lt;/font&gt;" style="text;html=1;align=center;verticalAlign=middle;resizable=0;points=[];autosize=1;strokeColor=none;fillColor=none;fontSize=10;" vertex="1" parent="mMh6v223Tg-FpIQAZi32-1">
                    <mxGeometry x="40" y="1030" width="80" height="40" as="geometry"/>
                </mxCell>
                <mxCell id="910AFivzuZRo8TZvGyrh-5" value="" style="endArrow=none;endFill=0;endSize=12;html=1;fontSize=11;startArrow=classic;startFill=1;dashed=1;" edge="1" parent="mMh6v223Tg-FpIQAZi32-1">
                    <mxGeometry width="160" relative="1" as="geometry">
                        <mxPoint x="555" y="1040" as="sourcePoint"/>
                        <mxPoint x="355.0000000000001" y="1040" as="targetPoint"/>
                        <Array as="points">
                            <mxPoint x="471" y="1040"/>
                        </Array>
                    </mxGeometry>
                </mxCell>
                <mxCell id="910AFivzuZRo8TZvGyrh-6" value="Update (decremit) blood bags" style="text;html=1;align=center;verticalAlign=middle;resizable=0;points=[];autosize=1;strokeColor=none;fillColor=none;fontSize=11;" vertex="1" parent="mMh6v223Tg-FpIQAZi32-1">
                    <mxGeometry x="365.00000000000006" y="1050" width="160" height="20" as="geometry"/>
                </mxCell>
                <mxCell id="hK3dc9ZiFFOQUHbALWDG-42" value="Donor is user and recipeint is inst." style="text;html=1;align=center;verticalAlign=middle;resizable=0;points=[];autosize=1;strokeColor=none;fillColor=none;fontSize=11;" vertex="1" parent="mMh6v223Tg-FpIQAZi32-1">
                    <mxGeometry x="360.00000000000006" y="1020" width="180" height="20" as="geometry"/>
                </mxCell>
                <mxCell id="910AFivzuZRo8TZvGyrh-7" value="" style="endArrow=none;endFill=0;endSize=12;html=1;fontSize=11;startArrow=classic;startFill=1;dashed=1;" edge="1" parent="mMh6v223Tg-FpIQAZi32-1">
                    <mxGeometry width="160" relative="1" as="geometry">
                        <mxPoint x="150" y="1090" as="sourcePoint"/>
                        <mxPoint x="340.0000000000001" y="1090" as="targetPoint"/>
                        <Array as="points">
                            <mxPoint x="265.5" y="1090"/>
                        </Array>
                    </mxGeometry>
                </mxCell>
                <mxCell id="910AFivzuZRo8TZvGyrh-8" value="Accepted Transaction" style="text;html=1;align=center;verticalAlign=middle;resizable=0;points=[];autosize=1;strokeColor=none;fillColor=none;" vertex="1" parent="mMh6v223Tg-FpIQAZi32-1">
                    <mxGeometry x="190" y="1060" width="130" height="20" as="geometry"/>
                </mxCell>
            </root>
        </mxGraphModel>
    </diagram>
</mxfile>